{"glyphs":{"0":{"ha":1000,"x_min":0,"x_max":0,"o":"m 733 1180 b 923 915 828 1133 886 1053 b 962 592 950 819 962 716 b 935 385 962 496 956 447 b 819 201 912 314 876 257 b 506 14 723 107 600 33 b 377 10 480 9 410 6 b 36 252 186 31 85 103 b 10 441 16 313 10 360 b 111 823 10 578 36 676 b 262 1052 157 913 213 997 b 386 1167 297 1091 362 1151 b 563 1218 437 1201 498 1218 b 733 1180 629 1218 678 1207 m 801 784 b 724 1025 812 884 787 963 b 617 1078 691 1058 651 1078 b 518 1049 592 1078 535 1061 b 495 1025 514 1046 503 1035 b 471 1003 486 1014 476 1004 b 377 908 462 999 401 937 b 295 729 325 841 295 778 b 301 673 295 718 298 693 b 303 553 306 634 308 585 b 275 478 299 521 291 501 b 247 436 267 466 254 447 b 244 271 213 386 212 333 b 362 192 269 224 303 201 b 475 198 388 189 444 191 b 666 296 549 213 618 248 b 708 359 688 318 700 337 b 714 441 714 375 714 380 b 710 558 714 482 713 525 b 761 712 701 649 707 665 b 801 784 793 739 796 746 "},"1":{"ha":588,"x_min":0,"x_max":0,"o":"m 115 1162 b 86 1206 91 1177 85 1186 b 191 1310 91 1252 139 1300 b 216 1307 208 1313 210 1313 l 222 1301 l 231 1306 b 312 1320 243 1314 282 1320 b 419 1224 368 1321 401 1291 b 419 1059 428 1192 428 1118 b 365 823 405 970 392 911 b 340 699 343 754 340 736 b 410 507 340 643 354 604 b 501 239 481 383 497 336 b 423 70 505 126 487 86 b 322 68 397 63 350 62 b 228 116 285 76 246 96 b 212 249 206 140 203 163 b 235 425 220 334 225 369 b 223 641 255 534 254 550 b 231 877 189 744 190 777 b 247 997 253 933 257 958 b 206 1073 239 1026 231 1041 b 115 1162 176 1113 139 1148 "},"2":{"ha":1190,"x_min":0,"x_max":0,"o":"m 1079 436 b 1104 344 1094 412 1102 383 b 1087 259 1105 305 1102 289 b 943 114 1063 211 995 143 b 846 81 924 103 875 86 b 651 68 788 70 686 63 b 588 93 634 71 623 75 l 545 115 l 516 114 b 388 80 480 114 461 109 b 314 53 361 69 328 57 b 211 48 282 44 235 42 b 142 88 187 54 163 68 b 92 184 118 111 101 143 b 94 325 84 226 84 289 b 111 373 98 339 105 361 b 304 570 145 448 227 531 b 339 596 312 575 328 586 b 511 662 387 641 422 654 b 571 671 538 664 562 668 b 704 761 604 682 671 728 b 742 836 720 778 725 787 b 753 902 755 873 755 873 b 715 1036 751 942 731 1013 b 648 1070 708 1046 685 1058 b 569 1085 612 1082 585 1087 b 476 1044 551 1082 501 1060 b 426 982 439 1020 420 997 b 442 959 428 978 435 967 b 474 888 459 937 470 914 b 414 774 481 833 463 799 b 379 756 401 767 385 759 b 353 749 371 752 362 749 b 275 829 325 749 306 769 b 252 867 266 845 256 863 b 224 883 248 871 235 878 b 172 916 197 894 186 902 b 139 1026 150 941 139 977 b 261 1195 139 1103 165 1139 b 432 1260 318 1229 375 1250 b 601 1261 465 1265 567 1266 b 712 1220 653 1253 685 1241 b 737 1203 720 1213 731 1206 b 793 1210 747 1199 748 1199 b 892 1212 831 1219 871 1220 b 954 1169 913 1204 933 1190 b 1003 1090 977 1146 993 1120 b 1012 1026 1010 1071 1011 1062 b 1009 948 1013 998 1012 972 b 1000 865 1006 928 1002 891 b 992 799 998 839 994 809 b 989 774 990 790 989 778 b 985 759 990 769 989 764 b 967 706 982 754 974 731 b 791 524 936 601 907 570 b 711 498 772 516 736 505 b 550 426 630 476 612 468 b 455 320 487 383 459 352 b 464 281 453 304 458 283 b 553 304 468 279 528 295 b 591 334 561 307 572 316 b 708 407 629 373 666 396 b 782 388 734 413 749 409 b 861 365 822 363 850 354 b 895 420 863 367 879 392 b 961 498 928 475 945 495 b 1079 436 999 505 1053 476 "},"3":{"ha":857,"x_min":0,"x_max":0,"o":"m 305 140 b 167 152 234 138 211 140 b 92 200 122 164 103 176 b 87 249 86 214 85 217 b 144 398 89 309 111 365 b 243 451 166 420 208 442 b 328 435 283 461 307 457 b 362 354 344 419 350 404 b 413 284 375 301 383 289 b 528 322 455 276 516 296 b 526 354 533 331 533 332 b 517 389 522 367 518 382 b 535 456 514 404 521 429 b 557 529 550 487 557 510 b 552 549 557 543 556 546 b 475 544 543 553 519 552 b 316 540 415 534 353 532 b 258 572 283 547 266 556 b 258 628 250 587 250 610 b 314 684 266 646 294 674 b 426 690 331 693 331 693 b 476 695 460 690 465 690 b 539 777 500 706 530 745 b 532 865 546 799 543 830 b 536 966 518 907 519 925 b 538 1014 552 1005 552 1010 b 505 1013 529 1017 523 1017 b 400 952 454 1003 409 977 b 393 908 398 946 394 926 b 352 813 388 855 379 833 b 239 794 320 788 268 779 b 195 841 222 802 205 821 b 191 886 189 855 188 858 b 181 960 194 929 193 933 b 166 1069 156 1013 153 1034 b 202 1121 174 1093 184 1107 b 281 1143 220 1135 236 1139 b 354 1163 329 1146 335 1148 b 461 1202 385 1189 412 1199 b 591 1228 497 1205 554 1216 b 716 1227 642 1244 681 1244 b 772 1169 738 1216 760 1193 b 782 1127 780 1152 782 1147 b 750 1045 782 1101 777 1090 b 721 971 730 1013 721 991 b 751 921 721 952 724 947 b 812 761 806 869 826 818 b 780 699 806 736 795 714 b 729 658 773 692 750 674 b 690 627 708 642 691 628 b 706 623 689 626 696 624 b 769 594 737 619 749 614 b 798 553 782 581 791 569 b 810 504 808 533 809 529 b 781 406 812 472 808 459 b 757 292 751 345 748 333 b 751 209 763 262 761 229 b 685 139 744 192 731 179 b 542 83 635 95 617 88 b 441 84 486 80 459 80 b 392 116 421 89 402 101 b 377 135 387 123 380 131 l 370 142 l 305 140 "},"4":{"ha":1101,"x_min":0,"x_max":0,"o":"m 353 541 b 260 501 343 537 301 519 b 155 452 220 482 172 461 b 46 459 101 428 72 430 b 22 527 33 475 23 500 b 53 640 19 559 28 589 b 70 751 79 690 80 696 b 65 830 61 797 60 808 b 153 978 72 865 108 924 b 183 1016 166 994 180 1011 b 179 1094 191 1029 190 1046 b 171 1191 168 1143 166 1171 b 247 1286 178 1221 210 1261 b 288 1295 265 1299 275 1301 b 352 1290 297 1291 308 1290 b 420 1285 395 1290 407 1289 b 468 1239 441 1277 457 1262 b 478 1181 478 1220 478 1219 b 470 1119 478 1148 477 1140 b 401 1022 458 1084 438 1056 b 311 906 332 959 319 943 b 310 840 305 882 305 866 b 393 731 321 790 357 742 b 570 736 421 722 505 724 l 588 739 l 586 750 b 594 825 586 756 589 790 b 602 906 601 867 603 896 b 578 968 601 917 594 935 b 562 1096 543 1041 540 1065 b 679 1165 581 1123 632 1154 b 798 1163 712 1174 772 1172 b 851 1124 821 1154 840 1140 b 850 874 876 1085 876 1040 b 841 813 845 842 841 815 b 871 808 840 810 848 809 b 980 768 921 806 953 794 b 977 609 1026 725 1025 653 b 848 558 948 582 916 569 l 808 551 l 806 532 b 804 469 805 522 804 494 b 836 287 803 407 810 365 b 857 174 856 224 857 217 b 841 83 857 132 853 108 b 678 0 814 27 742 -9 b 584 67 638 6 598 34 b 601 207 567 103 572 143 b 640 372 630 271 637 303 b 627 503 643 421 639 457 b 586 556 614 551 614 552 b 353 541 497 569 425 565 "},"5":{"ha":992,"x_min":0,"x_max":0,"o":"m 811 745 b 845 681 822 723 837 694 b 894 314 899 588 920 436 b 751 71 874 219 816 119 b 549 0 703 36 632 11 b 380 -1 515 -4 420 -5 b 292 18 348 2 319 8 b 151 122 237 38 207 59 b 86 247 101 177 86 205 b 196 392 86 311 126 364 b 320 403 233 407 285 411 b 413 312 367 392 400 359 b 414 227 417 293 418 251 b 436 139 407 184 413 160 b 589 155 474 104 542 111 b 705 381 626 188 690 312 b 705 501 713 415 713 472 b 665 579 698 527 682 558 b 523 652 632 620 570 652 b 440 597 491 652 471 639 b 386 543 417 566 402 551 b 342 540 374 537 372 537 b 303 538 312 543 310 543 b 233 527 285 526 258 521 b 150 593 199 535 164 563 b 156 730 134 626 136 673 b 176 828 177 791 177 792 b 139 963 174 869 170 886 b 100 1121 107 1047 98 1081 b 107 1156 101 1138 103 1148 b 237 1212 127 1194 174 1214 b 291 1201 263 1211 269 1210 b 373 1198 328 1186 340 1186 b 450 1217 413 1212 424 1215 b 626 1174 512 1221 574 1206 l 647 1162 l 657 1166 b 674 1170 663 1168 671 1170 b 730 1119 693 1170 722 1143 b 741 1035 735 1101 739 1075 b 729 974 743 997 740 984 b 573 954 702 951 616 940 b 536 968 563 957 546 963 b 441 990 494 987 483 990 b 382 984 408 990 399 989 b 355 969 370 980 360 975 b 348 946 347 962 347 961 b 378 808 352 910 373 814 b 388 813 379 807 383 810 b 487 849 412 831 454 846 b 573 828 518 851 542 845 b 654 802 607 810 633 802 b 706 807 663 802 687 804 b 811 745 768 818 779 811 "},"6":{"ha":1176,"x_min":0,"x_max":0,"o":"m 923 654 b 1086 464 995 631 1072 541 b 1081 355 1092 434 1090 399 b 1017 192 1066 279 1047 231 b 910 67 981 145 929 84 b 757 -9 867 29 816 4 b 577 -13 721 -17 625 -19 b 465 -6 559 -11 509 -8 b 261 24 366 -2 309 6 b 206 73 240 32 216 53 b 151 133 196 91 180 110 b 45 278 91 180 72 207 b 9 474 20 347 5 427 b 45 658 13 521 24 579 b 141 932 72 764 95 827 b 250 1118 197 1057 209 1079 b 377 1195 289 1156 332 1182 b 534 1201 400 1201 403 1201 l 667 1200 l 755 1186 b 877 1162 856 1171 868 1169 b 894 1125 885 1155 889 1148 b 913 1079 897 1115 905 1094 b 915 904 941 1023 942 982 l 905 873 l 912 867 b 920 853 917 864 920 858 b 873 834 920 839 913 836 b 771 796 816 832 789 821 b 749 753 766 790 756 770 b 648 675 727 702 698 679 b 519 744 585 669 519 704 b 580 865 519 759 525 773 b 630 974 625 941 634 962 b 577 996 625 986 605 994 b 519 983 549 997 532 993 b 486 910 506 972 500 959 b 434 803 470 852 457 826 b 351 755 414 784 396 773 b 312 738 336 749 318 741 b 268 687 296 728 277 705 b 290 495 242 629 252 536 b 360 468 307 476 323 469 b 463 489 398 466 429 473 b 523 540 489 501 494 506 b 634 621 555 580 582 599 b 707 653 649 627 682 642 b 773 676 746 671 757 675 b 923 654 798 677 891 664 m 921 348 b 894 442 938 382 928 418 b 781 471 869 460 810 475 b 727 416 752 467 741 457 b 682 355 714 382 703 366 b 612 347 671 350 663 349 b 540 340 566 346 550 344 b 488 305 520 332 496 315 b 487 288 482 296 482 295 b 509 270 489 283 499 275 b 549 236 518 264 536 249 b 625 192 574 211 591 200 b 699 190 650 185 686 184 b 733 232 712 195 720 206 b 836 302 751 273 771 286 b 921 348 897 317 909 324 "},"7":{"ha":1124,"x_min":0,"x_max":0,"o":"m 843 1199 b 1033 1134 957 1193 1013 1174 b 1028 1052 1041 1118 1039 1079 b 925 851 1019 1028 936 867 b 894 813 920 845 907 828 b 832 666 855 767 846 746 b 819 599 827 639 821 609 b 740 473 807 553 787 521 b 611 277 665 397 634 350 b 590 116 593 217 590 197 l 590 42 l 582 22 b 539 -48 570 -6 553 -35 b 478 -74 525 -62 505 -71 b 415 -81 468 -75 439 -78 b 293 -82 362 -87 317 -88 b 229 -31 263 -75 237 -54 b 237 26 224 -15 227 7 b 382 242 245 41 313 142 b 449 414 423 302 431 321 b 531 657 471 528 491 589 b 662 821 558 704 584 736 b 751 961 728 894 751 929 b 726 1011 751 986 742 1004 b 676 1003 711 1018 699 1016 b 603 974 633 981 621 976 b 509 981 579 972 543 975 b 453 980 482 986 482 986 b 377 939 389 966 381 962 b 372 892 375 931 373 910 b 284 727 367 806 344 762 b 182 703 246 705 215 697 b 86 788 130 711 91 746 b 151 919 83 817 105 861 b 199 1038 186 962 191 975 b 216 1105 205 1077 208 1090 b 303 1178 229 1131 274 1168 b 320 1187 310 1180 318 1184 b 357 1189 326 1192 340 1193 b 423 1205 367 1187 375 1189 b 537 1226 485 1226 513 1231 b 588 1207 545 1224 569 1216 b 641 1188 607 1199 631 1190 b 758 1192 668 1181 702 1182 b 843 1199 802 1200 811 1201 "},"8":{"ha":993,"x_min":0,"x_max":0,"o":"m 39 116 b 64 184 39 136 44 150 b 87 279 85 219 88 229 b 93 333 87 315 87 321 b 184 454 105 364 143 414 b 209 483 198 467 209 480 b 118 554 209 488 153 533 b 63 603 82 577 71 586 b 57 642 56 616 56 619 b 84 734 59 672 65 692 b 96 880 116 803 117 817 b 87 933 88 904 87 910 b 111 1022 87 962 92 983 b 151 1072 121 1041 126 1047 b 181 1112 177 1097 180 1101 b 230 1169 185 1135 202 1156 b 300 1168 252 1179 273 1179 b 385 1165 328 1157 338 1157 b 485 1163 436 1173 464 1173 b 507 1160 496 1157 498 1157 b 688 1149 531 1168 638 1162 b 809 1083 729 1139 783 1109 b 852 961 840 1053 850 1024 b 747 761 856 858 839 827 b 668 693 697 725 683 713 b 643 636 652 672 643 653 b 705 594 643 610 655 602 b 796 537 771 584 790 572 b 791 456 799 523 799 519 b 834 347 786 410 795 386 b 870 307 849 332 865 314 b 905 153 892 273 911 192 b 812 76 897 108 867 82 b 756 77 794 73 783 74 l 723 81 l 710 75 b 676 50 703 71 688 60 b 576 -5 627 6 609 -4 b 549 -5 565 -6 552 -5 b 499 5 545 -4 523 0 b 265 22 366 32 320 35 b 201 12 242 16 225 13 b 144 18 171 11 166 12 b 64 60 112 27 82 43 b 39 116 46 79 39 94 m 628 502 b 591 515 619 515 612 517 b 553 513 581 514 564 513 b 517 521 535 513 530 514 b 428 537 487 536 450 543 b 380 489 411 533 394 515 b 370 432 366 461 364 452 b 372 389 373 421 373 410 b 345 278 370 355 363 327 b 344 200 326 226 325 211 b 380 208 356 192 361 193 b 441 235 407 227 421 234 b 494 214 461 237 474 232 b 516 197 502 208 511 200 b 576 187 530 187 562 181 b 583 235 586 191 588 205 b 616 388 576 277 579 289 b 636 479 636 440 640 461 b 628 502 635 487 631 497 m 330 857 b 348 783 341 832 348 803 b 328 715 348 762 342 742 b 322 656 313 684 311 672 b 376 637 334 636 361 627 b 403 667 379 639 391 653 b 503 738 444 717 466 733 b 559 773 535 743 550 753 b 514 855 568 792 560 805 b 477 925 483 887 477 900 b 495 988 477 946 482 966 b 498 1005 503 1001 503 1002 b 451 1015 490 1012 473 1015 b 397 993 426 1015 425 1015 b 368 978 380 979 377 978 l 358 979 l 344 957 b 320 887 328 930 318 902 b 330 857 321 881 325 868 "},"9":{"ha":1015,"x_min":0,"x_max":0,"o":"m 969 1014 b 1040 911 1016 965 1030 944 b 1003 676 1057 856 1038 739 b 910 570 983 641 965 621 b 869 526 893 554 875 535 b 828 441 856 505 835 463 b 829 343 819 414 820 380 b 836 260 838 306 840 285 b 790 107 830 224 802 132 b 716 37 775 78 749 54 b 634 18 687 23 667 18 b 543 34 602 18 590 21 b 390 22 486 51 455 48 b 334 4 367 13 344 5 b 315 2 324 3 316 2 b 302 3 315 2 309 3 b 220 17 275 5 234 12 b 137 90 187 30 153 59 b 129 130 129 104 129 108 b 164 206 129 163 135 177 b 272 256 197 238 229 253 b 413 226 318 258 357 250 b 490 210 453 209 469 206 b 596 298 536 218 571 247 b 663 460 610 325 654 431 b 678 517 667 474 674 499 b 685 595 684 545 685 554 b 679 659 685 637 685 643 b 646 688 671 682 662 690 b 603 669 631 686 612 678 b 580 622 594 660 588 649 b 536 561 571 595 560 579 b 381 564 490 527 458 528 b 348 574 355 577 351 578 b 292 547 344 569 307 551 b 208 554 273 543 236 546 b 103 629 155 570 122 593 b 110 802 78 677 80 727 b 121 939 136 868 139 895 b 140 1079 101 989 107 1029 b 210 1149 154 1099 188 1133 b 346 1159 256 1182 289 1184 l 372 1147 l 385 1153 b 464 1166 399 1159 442 1166 b 505 1161 473 1166 491 1164 b 537 1156 519 1158 533 1156 b 570 1165 541 1156 556 1160 b 631 1175 594 1174 596 1175 b 682 1169 662 1175 669 1174 b 702 1168 695 1164 697 1164 b 779 1166 715 1177 736 1177 b 922 1065 830 1153 880 1118 b 968 1014 930 1055 951 1032 m 768 888 b 776 966 781 918 786 955 b 719 954 770 974 753 970 b 595 954 664 929 646 929 b 552 970 579 961 560 969 b 443 946 520 977 469 966 b 367 872 418 928 379 890 b 352 856 360 861 354 855 b 349 856 350 857 349 857 b 343 833 349 855 346 845 b 342 771 337 806 336 780 b 373 752 347 764 357 757 b 396 751 386 748 388 748 b 415 777 400 753 407 763 b 466 831 431 805 446 821 b 596 839 495 845 525 847 b 729 845 668 831 705 832 b 768 888 741 851 761 873 "},"\u0000":{"ha":0,"x_min":0,"x_max":0,"o":""},"\n":{"ha":0,"x_min":0,"x_max":0,"o":""},"\r":{"ha":0,"x_min":0,"x_max":0,"o":""}," ":{"ha":521,"x_min":0,"x_max":0,"o":""},"!":{"ha":468,"x_min":0,"x_max":0,"o":"m 303 160 b 293 132 303 149 302 145 b 285 109 283 118 282 116 b 295 65 295 86 296 80 b 169 -29 291 15 231 -29 b 138 -23 153 -29 145 -27 b 121 26 120 -14 114 3 b 115 53 123 34 122 37 b 106 91 108 68 106 73 b 131 149 106 116 113 131 b 246 189 154 172 188 184 b 296 180 273 191 286 189 b 303 160 302 174 303 171 m 347 1145 b 381 1008 372 1117 388 1056 b 332 883 377 977 368 956 b 262 690 284 789 269 748 b 269 573 258 656 260 623 b 259 407 282 499 280 465 b 235 337 254 390 243 359 b 188 259 218 290 210 277 b 154 245 168 243 163 241 b 130 305 146 249 146 249 b 98 481 102 402 96 432 b 127 589 100 520 104 536 b 157 686 147 636 153 654 b 113 940 163 739 156 779 b 86 1080 94 1010 86 1050 b 104 1136 86 1110 89 1119 b 202 1173 121 1154 150 1165 b 347 1145 269 1183 321 1173 "},"$":{"ha":867,"x_min":0,"x_max":0,"o":"m 622 701 b 781 504 716 674 781 593 b 747 359 781 463 765 396 b 689 298 733 329 716 311 b 611 279 662 285 644 280 l 585 277 l 584 254 b 484 145 579 186 545 148 b 454 148 466 144 461 144 b 424 226 433 162 424 185 b 431 273 424 249 425 256 b 434 298 437 290 437 292 b 424 307 432 301 427 305 b 352 288 415 311 388 304 b 297 264 336 281 312 270 b 199 241 259 247 234 241 b 92 292 143 241 108 258 b 86 337 87 303 86 309 b 93 384 86 367 87 371 b 191 437 109 419 146 439 b 232 446 211 437 214 438 b 362 475 269 464 318 474 b 420 454 394 475 398 474 b 474 426 437 438 451 431 b 552 443 509 418 530 423 b 586 511 569 459 580 480 b 552 562 593 545 589 552 b 343 560 513 572 398 571 b 295 546 332 558 311 552 b 214 544 257 534 234 533 b 165 599 195 555 172 581 b 160 648 159 613 159 617 l 162 682 l 154 685 b 135 701 150 687 141 694 b 151 818 110 729 115 764 b 264 883 180 862 217 883 b 318 919 291 883 304 892 b 357 956 325 934 342 950 l 368 961 l 364 970 b 361 1000 361 977 360 986 b 386 1060 362 1026 370 1045 b 404 1097 399 1073 401 1077 b 432 1126 408 1119 415 1127 b 505 1088 462 1126 494 1110 b 513 1033 511 1077 511 1072 b 519 978 514 999 515 988 l 524 966 l 530 973 b 562 989 537 982 550 989 b 608 979 567 989 587 984 b 647 968 628 973 646 968 b 659 955 652 968 659 960 b 669 948 659 953 663 950 b 705 915 683 944 699 929 b 720 825 714 895 719 859 b 675 730 720 773 707 745 b 627 722 662 723 659 722 b 527 748 589 722 579 725 b 436 774 484 768 467 773 b 346 757 402 776 374 771 b 306 715 322 746 312 734 b 307 697 303 707 304 704 b 353 678 313 685 326 679 b 473 695 381 676 404 680 b 564 707 523 706 530 707 b 622 701 596 707 605 706 "},"%":{"ha":1047,"x_min":0,"x_max":0,"o":"m 953 1100 b 961 1062 960 1086 961 1081 b 906 964 961 1030 955 1019 b 862 870 881 935 872 915 b 816 754 848 809 839 788 b 740 683 799 730 773 705 b 641 594 673 636 655 620 b 622 502 631 573 629 564 b 583 355 613 422 604 387 b 450 263 559 317 532 298 b 317 153 374 232 341 204 b 300 60 305 127 301 107 b 278 -21 298 9 295 -2 b 160 -56 252 -49 202 -64 b 94 -4 130 -50 107 -32 b 86 53 86 12 86 13 b 103 142 86 96 89 110 b 245 279 123 187 152 215 b 369 380 307 322 338 347 b 448 510 411 423 437 467 b 457 570 451 521 455 548 b 550 711 464 639 472 651 b 670 842 614 761 646 796 b 707 945 687 874 693 893 b 768 1076 725 1016 738 1044 b 837 1129 788 1099 810 1115 b 867 1139 853 1137 861 1140 b 878 1143 873 1139 876 1140 b 953 1100 889 1161 936 1135 m 680 308 b 723 283 691 307 712 296 b 731 179 747 257 750 214 b 592 107 705 129 651 101 l 592 107 b 513 159 560 110 527 132 b 513 225 503 178 503 205 b 597 297 526 251 555 276 b 667 311 631 314 654 319 b 680 308 671 309 676 308 m 449 739 b 357 821 405 749 371 779 b 356 918 350 843 350 894 b 382 971 362 937 373 960 b 395 992 385 975 391 985 b 508 1016 416 1034 457 1042 b 574 952 528 1005 563 971 b 541 755 614 880 600 792 b 449 739 515 739 478 732 m 491 908 b 456 887 479 921 456 906 b 466 873 456 884 460 878 b 472 843 478 863 480 852 b 475 838 468 839 468 838 b 486 845 479 838 483 841 b 491 908 498 859 500 897 "},"&":{"ha":806,"x_min":0,"x_max":0,"o":"m 704 458 b 701 379 724 434 723 402 b 629 343 687 365 661 352 b 553 328 604 336 566 328 b 543 326 548 328 544 327 b 563 300 542 324 551 313 b 605 175 624 237 637 199 b 547 163 590 163 557 157 b 535 166 545 165 539 166 b 523 171 531 166 525 168 b 507 180 520 173 513 178 b 491 190 502 183 494 187 b 488 211 485 195 483 207 b 479 232 490 213 487 219 b 457 268 473 242 463 258 l 446 287 l 434 283 b 363 278 425 279 408 278 b 168 225 262 277 236 270 b 77 195 124 196 115 193 b -35 248 16 198 -26 218 b 10 382 -46 283 -25 345 b 120 472 26 400 90 452 b 167 530 145 489 155 501 b 215 584 178 557 189 569 b 234 596 225 590 233 595 b 199 645 236 599 217 625 b 122 775 163 682 152 701 b 95 882 101 828 95 849 b 102 923 95 907 95 910 b 155 986 111 942 136 972 b 235 1015 173 999 198 1009 b 294 1017 257 1019 264 1019 b 399 1020 344 1012 361 1013 b 515 1012 468 1033 485 1032 b 538 1001 525 1006 535 1001 b 559 1006 541 1001 550 1003 b 623 1003 579 1013 605 1012 b 682 921 650 990 673 958 b 684 842 687 901 688 858 b 638 790 679 825 668 812 b 580 741 623 778 597 756 b 517 688 562 726 534 702 b 457 624 488 665 457 631 b 443 603 457 622 450 613 b 403 518 420 574 399 528 b 417 511 404 516 410 513 b 494 442 451 503 474 483 b 502 427 498 434 501 427 b 526 439 502 426 513 432 b 650 478 572 465 613 478 b 704 458 677 478 690 473 m 377 373 b 364 395 381 375 379 378 b 321 451 354 405 334 430 l 297 488 l 271 477 b 236 462 256 472 241 465 b 185 406 224 454 196 424 b 179 383 175 389 174 387 b 185 369 181 381 183 375 b 194 356 187 361 189 358 b 247 362 203 353 227 356 b 319 369 261 366 276 368 b 377 373 349 371 375 372 m 383 657 b 431 693 404 678 409 682 b 464 714 449 701 459 708 b 488 765 476 728 488 754 b 501 784 488 774 489 776 b 529 831 517 795 525 808 b 526 860 532 847 531 850 b 465 902 516 881 491 899 b 446 912 455 903 451 905 b 358 934 429 932 393 941 b 309 910 338 930 323 923 b 234 815 291 894 243 834 b 226 768 226 799 226 797 b 250 680 227 731 234 705 b 303 628 259 666 291 634 b 347 629 311 623 333 624 b 383 657 357 632 365 638 "},"(":{"ha":640,"x_min":0,"x_max":0,"o":"m 513 192 b 554 131 543 178 554 162 b 537 68 554 110 549 93 b 437 -10 516 26 485 2 b 286 -11 408 -16 321 -17 b 213 13 255 -5 238 0 b 73 149 158 40 98 98 b 33 620 20 253 2 467 b 191 977 55 730 125 889 b 308 1089 218 1014 263 1057 b 375 1111 352 1120 365 1124 b 390 1108 379 1106 380 1105 b 415 1110 395 1109 407 1110 b 485 1063 445 1110 475 1090 b 479 996 492 1045 489 1018 b 353 923 460 955 433 940 b 268 887 296 912 276 903 b 263 828 264 879 264 869 b 209 681 263 762 261 757 b 175 627 195 660 179 635 b 201 505 154 585 160 556 b 265 386 264 426 266 422 b 248 312 265 366 264 359 b 228 204 229 253 224 229 b 316 132 235 161 269 133 b 377 160 340 132 351 137 b 472 200 417 195 433 202 b 513 192 493 199 500 198 "},")":{"ha":657,"x_min":0,"x_max":0,"o":"m 568 954 b 607 482 620 849 638 635 b 450 125 585 372 515 214 b 332 14 423 89 377 46 b 266 -9 288 -17 275 -21 b 251 -5 261 -3 260 -3 b 225 -7 245 -6 233 -7 b 155 40 195 -7 166 13 b 161 106 149 58 151 85 b 287 179 181 148 207 163 b 372 216 344 191 364 199 b 377 275 376 224 377 234 b 431 422 378 341 379 346 b 465 476 446 443 461 467 b 440 598 486 518 480 546 b 375 717 377 677 375 681 b 392 791 375 737 376 743 b 412 899 411 850 416 874 b 324 970 405 942 371 970 b 263 943 300 971 289 966 b 168 903 223 908 207 901 b 127 911 147 903 140 905 b 86 972 97 924 86 941 b 103 1035 86 993 91 1010 b 203 1112 124 1077 155 1101 b 354 1114 232 1119 319 1120 b 427 1090 386 1108 402 1103 b 568 954 482 1063 542 1005 "},"+":{"ha":874,"x_min":0,"x_max":0,"o":"m 767 639 b 788 554 782 608 787 586 b 764 480 788 520 781 499 b 687 459 747 461 737 458 b 605 465 659 459 633 461 b 564 469 578 469 564 471 b 561 440 563 467 562 454 b 511 269 556 354 539 298 b 487 256 500 257 498 256 b 469 263 478 256 475 257 b 458 279 466 267 461 274 b 435 308 456 283 445 296 b 383 427 407 338 385 388 b 377 455 383 436 380 448 b 368 482 374 462 370 474 b 361 496 366 489 362 496 b 294 485 359 496 329 491 b 163 475 220 473 190 471 b 86 563 114 482 89 511 b 106 625 85 592 90 607 b 187 662 123 644 146 654 b 236 676 204 666 226 672 b 330 686 260 687 286 690 b 374 700 382 683 376 681 b 364 758 373 709 368 735 b 354 869 354 814 351 843 b 438 962 361 928 391 962 b 559 871 496 962 538 931 b 566 814 566 852 566 847 b 557 739 566 781 565 774 b 547 699 551 718 547 700 b 571 698 547 698 558 698 b 610 692 589 698 598 696 b 666 682 648 677 646 678 b 721 689 704 691 708 692 b 767 639 739 684 753 669 "},",":{"ha":231,"x_min":0,"x_max":0,"o":"m 100 72 b 97 43 102 57 101 53 b 3 -110 89 28 114 -34 b -13 6 -13 -121 9 -1 b -36 15 -22 8 -32 12 b -69 66 -45 21 -64 50 b -33 163 -82 102 -66 143 b 1 173 -18 172 -14 173 b 36 164 16 173 21 172 b 60 145 50 157 56 153 b 75 130 63 139 70 132 b 97 111 86 124 96 115 b 100 72 98 98 99 87 "},"-":{"ha":769,"x_min":0,"x_max":0,"o":"m 571 780 b 683 665 640 761 689 711 b 626 593 679 636 656 607 b 543 588 603 583 571 581 b 502 603 532 591 514 598 b 350 620 429 633 416 635 b 236 602 293 607 276 605 b 146 616 194 600 171 604 b 91 666 125 626 98 651 b 90 730 85 678 85 719 b 95 746 92 734 94 741 b 137 784 98 762 108 772 b 224 796 162 794 187 798 b 300 783 254 795 263 794 b 391 768 349 770 375 765 b 441 777 397 769 419 773 b 571 780 490 787 539 788 "},".":{"ha":229,"x_min":0,"x_max":0,"o":"m 100 72 b 97 43 102 57 101 53 b 54 6 89 28 71 12 b -13 6 36 -1 9 -1 b -36 15 -22 8 -32 12 b -69 66 -45 21 -64 50 b -33 163 -82 102 -66 143 b 1 173 -18 172 -14 173 b 36 164 16 173 21 172 b 60 145 50 157 56 153 b 75 130 63 139 70 132 b 97 111 86 124 96 115 b 100 72 98 98 99 87 "},"/":{"ha":1047,"x_min":0,"x_max":0,"o":"m 953 947 b 961 909 960 932 961 928 b 906 810 961 877 955 866 b 862 716 881 781 872 762 b 816 600 848 655 839 635 b 740 529 799 576 773 551 b 641 440 673 483 655 466 b 622 349 631 419 629 411 b 583 201 613 269 604 233 b 450 110 559 163 532 145 b 317 0 374 78 341 50 b 300 -93 305 -26 301 -47 b 278 -174 298 -144 295 -156 b 160 -209 252 -203 202 -218 b 94 -158 130 -203 107 -186 b 86 -101 86 -141 86 -141 b 103 -12 86 -58 89 -43 b 245 125 123 33 152 62 b 369 226 307 168 338 194 b 448 357 411 270 437 313 b 457 416 451 368 455 394 b 550 558 464 485 472 497 b 670 689 614 607 646 642 b 707 791 687 720 693 739 b 768 923 725 863 738 891 b 837 975 788 945 810 961 b 867 986 853 983 861 986 b 878 989 873 985 876 986 b 953 947 889 1007 936 981 "},":":{"ha":303,"x_min":0,"x_max":0,"o":"m 79 644 b 45 695 70 650 51 679 b 82 793 33 732 48 772 b 116 803 97 802 100 803 b 151 794 130 803 136 801 b 175 774 165 786 170 782 b 190 759 178 768 185 762 b 211 740 201 753 211 745 b 215 702 213 727 214 717 b 211 673 217 687 216 683 b 168 635 204 658 186 642 b 101 635 151 629 123 629 b 79 644 93 638 83 642 m 211 292 b 215 253 213 279 214 268 b 211 225 217 239 216 234 b 168 187 204 209 186 194 b 101 187 151 180 123 180 b 79 196 93 189 83 194 b 45 247 70 202 51 231 b 82 344 33 283 48 324 b 116 354 97 353 100 354 b 151 345 130 354 136 353 b 175 326 165 338 170 334 b 190 311 178 320 185 314 b 211 292 201 305 211 296 "},"=":{"ha":992,"x_min":0,"x_max":0,"o":"m 890 497 b 893 481 887 490 888 488 b 898 464 896 477 898 471 b 820 415 898 443 869 425 b 705 401 780 407 746 403 b 646 406 665 400 661 400 b 586 442 627 413 624 415 b 429 457 530 482 513 484 b 177 417 312 419 226 406 b 97 479 142 425 113 448 b 86 524 88 497 86 506 b 102 564 86 542 91 554 b 166 583 115 574 124 577 b 239 600 184 586 217 593 b 356 616 291 615 315 618 b 470 591 393 614 408 611 b 621 561 543 567 589 558 b 674 567 628 562 652 565 b 839 549 738 574 778 569 b 883 528 867 540 874 536 b 890 497 894 517 895 511 m 180 695 b 146 741 155 707 148 717 b 153 775 145 757 146 761 b 194 828 163 795 181 819 b 228 835 202 834 205 835 b 270 840 246 835 257 836 b 353 851 292 848 321 851 b 438 836 382 851 401 848 b 592 843 485 821 507 822 b 731 861 657 860 679 863 b 846 836 780 859 811 853 b 905 752 887 816 904 793 b 760 627 909 666 847 613 b 662 661 739 631 708 641 b 506 689 581 695 560 698 b 352 672 427 675 412 673 b 180 695 267 670 221 676 "},"?":{"ha":821,"x_min":0,"x_max":0,"o":"m 385 84 b 389 45 386 71 387 60 b 385 16 390 31 390 26 b 342 -21 377 1 359 -14 b 275 -21 324 -28 297 -28 b 252 -12 266 -19 256 -14 b 219 39 243 -6 224 23 b 256 136 206 75 222 116 b 289 146 270 145 274 146 b 325 137 304 146 309 145 b 348 118 338 130 344 126 b 364 103 352 112 358 106 b 385 84 375 97 384 88 m 731 991 b 731 884 736 966 736 911 b 699 788 726 855 714 819 b 535 632 663 714 625 678 b 418 544 460 595 432 574 b 409 499 410 528 409 525 b 417 425 409 484 413 452 b 387 235 432 323 424 270 b 274 201 358 208 317 195 b 192 261 238 205 203 231 b 234 396 177 300 191 343 b 284 569 272 442 277 460 b 370 735 290 664 308 699 b 449 790 411 758 438 777 b 471 896 477 821 486 867 b 419 941 464 910 443 928 b 335 955 379 961 352 966 b 310 900 322 946 312 924 b 323 850 309 882 310 881 l 337 818 l 337 789 b 316 728 337 757 333 746 b 213 725 292 703 244 702 b 184 740 208 728 195 735 b 145 769 157 751 145 760 b 132 787 145 773 141 779 b 99 853 116 802 102 829 b 100 893 96 868 97 875 l 104 915 l 95 948 b 86 997 87 975 85 985 b 165 1079 90 1032 117 1060 b 288 1102 203 1093 232 1099 b 355 1114 320 1104 331 1106 b 443 1128 395 1126 416 1129 b 520 1099 472 1126 488 1120 b 592 1087 552 1077 560 1076 b 659 1100 634 1102 643 1104 b 731 991 694 1092 717 1057 "},"@":{"ha":951,"x_min":0,"x_max":0,"o":"m 869 796 b 932 688 917 768 935 738 b 919 638 931 667 930 662 b 909 597 907 612 907 610 b 911 550 910 589 911 568 b 888 450 910 511 902 476 b 826 388 876 428 846 399 b 752 373 799 374 784 371 b 694 356 719 375 714 373 b 615 331 669 334 664 332 b 508 349 555 330 521 336 b 491 363 504 353 497 360 b 455 471 456 384 440 432 b 454 474 456 474 456 475 b 436 441 453 473 445 458 b 383 378 418 405 405 389 b 289 382 357 366 318 367 b 237 565 244 405 228 463 b 277 661 242 616 247 629 b 298 692 290 675 296 683 b 309 714 300 698 305 708 b 374 761 317 725 351 749 b 425 765 389 769 414 771 b 441 764 431 762 434 762 b 463 766 445 766 455 766 b 502 740 479 764 491 756 b 509 707 508 730 509 727 b 500 669 509 687 508 684 b 480 643 495 660 486 648 b 440 645 462 627 451 627 b 429 655 436 651 431 655 b 394 640 423 655 397 645 b 385 623 392 638 388 630 b 365 595 382 614 376 606 b 345 572 356 586 347 576 b 335 522 339 561 335 539 l 335 508 l 352 509 b 432 561 380 511 420 537 b 479 626 440 577 473 622 b 512 626 488 632 503 632 b 533 577 524 617 534 595 b 531 551 533 568 532 557 b 539 510 529 542 530 537 b 568 460 550 474 553 471 l 580 452 l 622 452 b 697 466 668 452 681 454 b 758 564 723 486 751 532 b 747 617 761 582 759 594 b 744 681 736 640 735 654 b 746 734 752 706 752 719 b 683 806 736 758 709 789 b 570 854 650 829 627 838 b 504 874 549 860 520 869 b 371 865 452 890 416 888 b 247 774 333 846 270 800 b 206 697 224 749 212 725 b 204 640 205 690 204 664 b 177 511 205 587 203 581 b 153 408 154 450 151 438 b 174 349 154 380 159 366 b 239 314 189 333 200 327 b 318 271 286 298 302 290 b 375 219 350 234 356 228 b 453 203 398 207 431 201 b 564 251 479 206 517 222 b 629 269 591 267 599 269 b 695 292 658 268 662 270 b 769 317 724 310 738 315 b 804 312 790 318 794 318 b 826 269 819 304 826 291 b 788 202 825 244 819 233 b 692 137 755 167 733 153 b 662 119 684 134 670 126 b 531 80 630 93 590 81 b 479 81 510 79 487 80 b 441 89 471 82 454 86 b 342 95 421 94 412 95 b 234 101 275 95 260 96 b 152 127 199 107 169 117 b 77 188 135 136 93 171 b 38 394 39 229 27 293 b 31 498 43 446 42 462 b 22 563 23 523 22 528 b 53 677 22 611 25 622 b 80 749 73 717 76 724 b 111 821 86 782 90 792 b 142 866 120 833 134 853 b 293 979 172 914 222 950 b 433 1003 344 999 360 1001 b 559 988 511 1004 527 1002 b 602 969 571 983 590 974 b 648 957 617 962 629 959 b 735 933 679 953 712 944 b 814 853 758 922 787 892 b 840 816 825 836 837 819 b 869 796 843 813 856 804 "},"A":{"ha":810,"x_min":0,"x_max":0,"o":"m 20 91 b 88 547 -41 230 60 401 b 83 650 93 586 93 603 b 97 1004 57 769 46 912 b 279 1173 103 1032 253 1219 b 572 1123 369 1206 500 1172 b 626 782 675 1051 672 903 b 627 482 586 668 592 579 b 731 324 646 420 711 383 b 712 88 761 257 742 148 b 523 -12 678 19 601 -24 b 411 272 424 5 401 158 b 374 512 410 377 441 485 b 297 326 260 544 277 447 b 280 63 311 230 318 146 b 83 19 256 -7 141 -9 b 29 27 67 29 48 28 b 14 65 20 38 -4 59 b 20 91 27 74 29 70 m 279 769 b 325 670 256 703 266 653 b 396 711 343 677 388 703 b 387 914 437 760 456 882 b 363 910 377 919 365 918 b 350 898 360 901 357 898 b 279 769 320 886 293 815 "},"a":{"ha":810,"x_min":0,"x_max":0,"o":"m 20 91 b 14 65 29 70 27 74 b 29 27 -4 59 20 38 b 83 19 48 28 67 29 b 280 63 141 -9 256 -7 b 297 326 318 146 311 230 b 374 512 277 447 260 544 b 411 272 441 485 410 377 b 523 -12 401 158 424 5 b 712 88 601 -24 678 19 b 731 324 742 148 761 257 b 627 482 711 383 646 420 b 626 782 592 579 586 668 b 572 1123 672 903 675 1051 b 279 1173 500 1172 369 1206 b 97 1004 253 1219 103 1032 b 83 650 46 912 57 769 b 88 547 93 603 93 586 b 20 91 60 401 -41 230 m 279 769 b 350 898 293 815 320 886 b 363 910 357 898 360 901 b 387 914 365 918 377 919 b 396 711 456 882 437 760 b 325 670 388 703 343 677 b 279 769 266 653 256 703 "},"À":{"ha":810,"x_min":0,"x_max":0,"o":"m 20 91 b 88 547 -41 230 60 401 b 83 650 93 586 93 603 b 97 1004 57 769 46 912 b 279 1173 103 1032 253 1219 b 572 1123 369 1206 500 1172 b 626 782 675 1051 672 903 b 627 482 586 668 592 579 b 731 324 646 420 711 383 b 712 88 761 257 742 148 b 523 -12 678 19 601 -24 b 411 272 424 5 401 158 b 374 512 410 377 441 485 b 297 326 260 544 277 447 b 280 63 311 230 318 146 b 83 19 256 -7 141 -9 b 29 27 67 29 48 28 b 14 65 20 38 -4 59 b 20 91 27 74 29 70 m 279 769 b 325 670 256 703 266 653 b 396 711 343 677 388 703 b 387 914 437 760 456 882 b 363 910 377 919 365 918 b 350 898 360 901 357 898 b 279 769 320 886 293 815 "},"Á":{"ha":810,"x_min":0,"x_max":0,"o":"m 20 91 b 14 65 29 70 27 74 b 29 27 -4 59 20 38 b 83 19 48 28 67 29 b 280 63 141 -9 256 -7 b 297 326 318 146 311 230 b 374 512 277 447 260 544 b 411 272 441 485 410 377 b 523 -12 401 158 424 5 b 712 88 601 -24 678 19 b 731 324 742 148 761 257 b 627 482 711 383 646 420 b 626 782 592 579 586 668 b 572 1123 672 903 675 1051 b 279 1173 500 1172 369 1206 b 97 1004 253 1219 103 1032 b 83 650 46 912 57 769 b 88 547 93 603 93 586 b 20 91 60 401 -41 230 m 279 769 b 350 898 293 815 320 886 b 363 910 357 898 360 901 b 387 914 365 918 377 919 b 396 711 456 882 437 760 b 325 670 388 703 343 677 b 279 769 266 653 256 703 "},"Â":{"ha":810,"x_min":0,"x_max":0,"o":"m 20 91 b 88 547 -41 230 60 401 b 83 650 93 586 93 603 b 97 1004 57 769 46 912 b 279 1173 103 1032 253 1219 b 572 1123 369 1206 500 1172 b 626 782 675 1051 672 903 b 627 482 586 668 592 579 b 731 324 646 420 711 383 b 712 88 761 257 742 148 b 523 -12 678 19 601 -24 b 411 272 424 5 401 158 b 374 512 410 377 441 485 b 297 326 260 544 277 447 b 280 63 311 230 318 146 b 83 19 256 -7 141 -9 b 29 27 67 29 48 28 b 14 65 20 38 -4 59 b 20 91 27 74 29 70 m 279 769 b 325 670 256 703 266 653 b 396 711 343 677 388 703 b 387 914 437 760 456 882 b 363 910 377 919 365 918 b 350 898 360 901 357 898 b 279 769 320 886 293 815 "},"Ã":{"ha":810,"x_min":0,"x_max":0,"o":"m 20 91 b 14 65 29 70 27 74 b 29 27 -4 59 20 38 b 83 19 48 28 67 29 b 280 63 141 -9 256 -7 b 297 326 318 146 311 230 b 374 512 277 447 260 544 b 411 272 441 485 410 377 b 523 -12 401 158 424 5 b 712 88 601 -24 678 19 b 731 324 742 148 761 257 b 627 482 711 383 646 420 b 626 782 592 579 586 668 b 572 1123 672 903 675 1051 b 279 1173 500 1172 369 1206 b 97 1004 253 1219 103 1032 b 83 650 46 912 57 769 b 88 547 93 603 93 586 b 20 91 60 401 -41 230 m 279 769 b 350 898 293 815 320 886 b 363 910 357 898 360 901 b 387 914 365 918 377 919 b 396 711 456 882 437 760 b 325 670 388 703 343 677 b 279 769 266 653 256 703 "},"Ä":{"ha":810,"x_min":0,"x_max":0,"o":"m 20 91 b 88 547 -41 230 60 401 b 83 650 93 586 93 603 b 97 1004 57 769 46 912 b 279 1173 103 1032 253 1219 b 572 1123 369 1206 500 1172 b 626 782 675 1051 672 903 b 627 482 586 668 592 579 b 731 324 646 420 711 383 b 712 88 761 257 742 148 b 523 -12 678 19 601 -24 b 411 272 424 5 401 158 b 374 512 410 377 441 485 b 297 326 260 544 277 447 b 280 63 311 230 318 146 b 83 19 256 -7 141 -9 b 29 27 67 29 48 28 b 14 65 20 38 -4 59 b 20 91 27 74 29 70 m 279 769 b 325 670 256 703 266 653 b 396 711 343 677 388 703 b 387 914 437 760 456 882 b 363 910 377 919 365 918 b 350 898 360 901 357 898 b 279 769 320 886 293 815 "},"Å":{"ha":810,"x_min":0,"x_max":0,"o":"m 20 91 b 14 65 29 70 27 74 b 29 27 -4 59 20 38 b 83 19 48 28 67 29 b 280 63 141 -9 256 -7 b 297 326 318 146 311 230 b 374 512 277 447 260 544 b 411 272 441 485 410 377 b 523 -12 401 158 424 5 b 712 88 601 -24 678 19 b 731 324 742 148 761 257 b 627 482 711 383 646 420 b 626 782 592 579 586 668 b 572 1123 672 903 675 1051 b 279 1173 500 1172 369 1206 b 97 1004 253 1219 103 1032 b 83 650 46 912 57 769 b 88 547 93 603 93 586 b 20 91 60 401 -41 230 m 279 769 b 350 898 293 815 320 886 b 363 910 357 898 360 901 b 387 914 365 918 377 919 b 396 711 456 882 437 760 b 325 670 388 703 343 677 b 279 769 266 653 256 703 "},"à":{"ha":810,"x_min":0,"x_max":0,"o":"m 20 91 b 88 547 -41 230 60 401 b 83 650 93 586 93 603 b 97 1004 57 769 46 912 b 279 1173 103 1032 253 1219 b 572 1123 369 1206 500 1172 b 626 782 675 1051 672 903 b 627 482 586 668 592 579 b 731 324 646 420 711 383 b 712 88 761 257 742 148 b 523 -12 678 19 601 -24 b 411 272 424 5 401 158 b 374 512 410 377 441 485 b 297 326 260 544 277 447 b 280 63 311 230 318 146 b 83 19 256 -7 141 -9 b 29 27 67 29 48 28 b 14 65 20 38 -4 59 b 20 91 27 74 29 70 m 279 769 b 325 670 256 703 266 653 b 396 711 343 677 388 703 b 387 914 437 760 456 882 b 363 910 377 919 365 918 b 350 898 360 901 357 898 b 279 769 320 886 293 815 "},"á":{"ha":810,"x_min":0,"x_max":0,"o":"m 20 91 b 14 65 29 70 27 74 b 29 27 -4 59 20 38 b 83 19 48 28 67 29 b 280 63 141 -9 256 -7 b 297 326 318 146 311 230 b 374 512 277 447 260 544 b 411 272 441 485 410 377 b 523 -12 401 158 424 5 b 712 88 601 -24 678 19 b 731 324 742 148 761 257 b 627 482 711 383 646 420 b 626 782 592 579 586 668 b 572 1123 672 903 675 1051 b 279 1173 500 1172 369 1206 b 97 1004 253 1219 103 1032 b 83 650 46 912 57 769 b 88 547 93 603 93 586 b 20 91 60 401 -41 230 m 279 769 b 350 898 293 815 320 886 b 363 910 357 898 360 901 b 387 914 365 918 377 919 b 396 711 456 882 437 760 b 325 670 388 703 343 677 b 279 769 266 653 256 703 "},"â":{"ha":810,"x_min":0,"x_max":0,"o":"m 20 91 b 88 547 -41 230 60 401 b 83 650 93 586 93 603 b 97 1004 57 769 46 912 b 279 1173 103 1032 253 1219 b 572 1123 369 1206 500 1172 b 626 782 675 1051 672 903 b 627 482 586 668 592 579 b 731 324 646 420 711 383 b 712 88 761 257 742 148 b 523 -12 678 19 601 -24 b 411 272 424 5 401 158 b 374 512 410 377 441 485 b 297 326 260 544 277 447 b 280 63 311 230 318 146 b 83 19 256 -7 141 -9 b 29 27 67 29 48 28 b 14 65 20 38 -4 59 b 20 91 27 74 29 70 m 279 769 b 325 670 256 703 266 653 b 396 711 343 677 388 703 b 387 914 437 760 456 882 b 363 910 377 919 365 918 b 350 898 360 901 357 898 b 279 769 320 886 293 815 "},"ã":{"ha":810,"x_min":0,"x_max":0,"o":"m 20 91 b 14 65 29 70 27 74 b 29 27 -4 59 20 38 b 83 19 48 28 67 29 b 280 63 141 -9 256 -7 b 297 326 318 146 311 230 b 374 512 277 447 260 544 b 411 272 441 485 410 377 b 523 -12 401 158 424 5 b 712 88 601 -24 678 19 b 731 324 742 148 761 257 b 627 482 711 383 646 420 b 626 782 592 579 586 668 b 572 1123 672 903 675 1051 b 279 1173 500 1172 369 1206 b 97 1004 253 1219 103 1032 b 83 650 46 912 57 769 b 88 547 93 603 93 586 b 20 91 60 401 -41 230 m 279 769 b 350 898 293 815 320 886 b 363 910 357 898 360 901 b 387 914 365 918 377 919 b 396 711 456 882 437 760 b 325 670 388 703 343 677 b 279 769 266 653 256 703 "},"ä":{"ha":810,"x_min":0,"x_max":0,"o":"m 20 91 b 88 547 -41 230 60 401 b 83 650 93 586 93 603 b 97 1004 57 769 46 912 b 279 1173 103 1032 253 1219 b 572 1123 369 1206 500 1172 b 626 782 675 1051 672 903 b 627 482 586 668 592 579 b 731 324 646 420 711 383 b 712 88 761 257 742 148 b 523 -12 678 19 601 -24 b 411 272 424 5 401 158 b 374 512 410 377 441 485 b 297 326 260 544 277 447 b 280 63 311 230 318 146 b 83 19 256 -7 141 -9 b 29 27 67 29 48 28 b 14 65 20 38 -4 59 b 20 91 27 74 29 70 m 279 769 b 325 670 256 703 266 653 b 396 711 343 677 388 703 b 387 914 437 760 456 882 b 363 910 377 919 365 918 b 350 898 360 901 357 898 b 279 769 320 886 293 815 "},"å":{"ha":810,"x_min":0,"x_max":0,"o":"m 20 91 b 14 65 29 70 27 74 b 29 27 -4 59 20 38 b 83 19 48 28 67 29 b 280 63 141 -9 256 -7 b 297 326 318 146 311 230 b 374 512 277 447 260 544 b 411 272 441 485 410 377 b 523 -12 401 158 424 5 b 712 88 601 -24 678 19 b 731 324 742 148 761 257 b 627 482 711 383 646 420 b 626 782 592 579 586 668 b 572 1123 672 903 675 1051 b 279 1173 500 1172 369 1206 b 97 1004 253 1219 103 1032 b 83 650 46 912 57 769 b 88 547 93 603 93 586 b 20 91 60 401 -41 230 m 279 769 b 350 898 293 815 320 886 b 363 910 357 898 360 901 b 387 914 365 918 377 919 b 396 711 456 882 437 760 b 325 670 388 703 343 677 b 279 769 266 653 256 703 "},"B":{"ha":933,"x_min":0,"x_max":0,"o":"m 109 918 b 99 1101 55 971 63 1045 b 184 1159 118 1128 151 1161 b 536 1171 255 1168 316 1172 l 673 1171 b 808 1085 730 1151 813 1146 b 763 940 798 1030 751 961 b 879 829 756 928 866 843 b 797 658 916 773 877 675 b 710 609 752 642 733 631 b 678 528 679 577 663 537 b 741 510 689 522 728 515 b 851 445 762 502 839 456 b 831 175 900 378 883 271 b 533 60 747 18 692 -3 b 296 45 416 101 420 102 b 191 16 249 24 231 7 l 191 16 b 141 301 64 61 152 199 b 106 473 140 354 107 417 b 156 701 100 556 145 625 b 109 918 176 785 163 858 m 592 301 b 542 441 621 363 606 412 b 365 436 473 478 408 475 b 366 274 336 382 306 323 b 435 232 388 253 410 240 b 592 301 484 216 573 253 m 358 904 b 340 657 278 784 387 800 b 491 635 379 630 437 618 b 616 742 548 652 605 681 b 545 910 632 814 604 882 b 358 904 489 941 399 942 "},"b":{"ha":933,"x_min":0,"x_max":0,"o":"m 109 918 b 156 701 163 858 176 785 b 106 473 145 625 100 556 b 141 301 107 417 140 354 b 191 16 152 199 64 61 l 191 16 b 296 45 231 7 249 24 b 533 60 420 102 416 101 b 831 175 692 -3 747 18 b 851 445 883 271 900 378 b 741 510 839 456 762 502 b 678 528 728 515 689 522 b 710 609 663 537 679 577 b 797 658 733 631 752 642 b 879 829 877 675 916 773 b 763 940 866 843 756 928 b 808 1085 751 961 798 1030 b 673 1171 813 1146 730 1151 l 536 1171 b 184 1159 316 1172 255 1168 b 99 1101 151 1161 118 1128 b 109 918 63 1045 55 971 m 592 301 b 435 232 573 253 484 216 b 366 274 410 240 388 253 b 365 436 306 323 336 382 b 542 441 408 475 473 478 b 592 301 606 412 621 363 m 358 904 b 545 910 399 942 489 941 b 616 742 604 882 632 814 b 491 635 605 681 548 652 b 340 657 437 618 379 630 b 358 904 387 800 278 784 "},"C":{"ha":900,"x_min":0,"x_max":0,"o":"m 81 595 b 276 1159 -16 784 63 1094 b 381 1155 297 1164 349 1162 b 455 1152 419 1147 424 1146 b 625 1133 502 1167 578 1147 b 790 961 667 1116 798 1028 b 715 765 795 899 721 857 b 443 613 697 620 566 492 b 410 673 421 635 414 648 b 516 858 394 731 454 849 b 532 894 526 858 532 871 b 387 939 537 969 440 980 b 242 609 286 875 255 721 b 250 537 238 582 241 553 b 321 472 257 523 306 474 b 411 389 374 451 401 426 b 446 239 418 350 417 249 b 537 235 473 216 509 213 b 630 530 613 306 498 468 b 810 518 675 555 778 551 b 854 333 859 466 880 425 b 634 52 826 212 737 110 b 404 -5 562 17 482 -18 b 142 202 272 34 188 75 b 137 256 136 219 136 223 b 81 595 141 406 132 477 "},"c":{"ha":900,"x_min":0,"x_max":0,"o":"m 81 595 b 137 256 132 477 141 406 b 142 202 136 223 136 219 b 404 -5 188 75 272 34 b 634 52 482 -18 562 17 b 854 333 737 110 826 212 b 810 518 880 425 859 466 b 630 530 778 551 675 555 b 537 235 498 468 613 306 b 446 239 509 213 473 216 b 411 389 417 249 418 350 b 321 472 401 426 374 451 b 250 537 306 474 257 523 b 242 609 241 553 238 582 b 387 939 255 721 286 875 b 532 894 440 980 537 969 b 516 858 532 871 526 858 b 410 673 454 849 394 731 b 443 613 414 648 421 635 b 715 765 566 492 697 620 b 790 961 721 857 795 899 b 625 1133 798 1028 667 1116 b 455 1152 578 1147 502 1167 b 381 1155 424 1146 419 1147 b 276 1159 349 1162 297 1164 b 81 595 63 1094 -16 784 "},"Ç":{"ha":900,"x_min":0,"x_max":0,"o":"m 81 595 b 276 1159 -16 784 63 1094 b 381 1155 297 1164 349 1162 b 455 1152 419 1147 424 1146 b 625 1133 502 1167 578 1147 b 790 961 667 1116 798 1028 b 715 765 795 899 721 857 b 443 613 697 620 566 492 b 410 673 421 635 414 648 b 516 858 394 731 454 849 b 532 894 526 858 532 871 b 387 939 537 969 440 980 b 242 609 286 875 255 721 b 250 537 238 582 241 553 b 321 472 257 523 306 474 b 411 389 374 451 401 426 b 446 239 418 350 417 249 b 537 235 473 216 509 213 b 630 530 613 306 498 468 b 810 518 675 555 778 551 b 854 333 859 466 880 425 b 634 52 826 212 737 110 b 404 -5 562 17 482 -18 b 142 202 272 34 188 75 b 137 256 136 219 136 223 b 81 595 141 406 132 477 "},"ç":{"ha":900,"x_min":0,"x_max":0,"o":"m 81 595 b 137 256 132 477 141 406 b 142 202 136 223 136 219 b 404 -5 188 75 272 34 b 634 52 482 -18 562 17 b 854 333 737 110 826 212 b 810 518 880 425 859 466 b 630 530 778 551 675 555 b 537 235 498 468 613 306 b 446 239 509 213 473 216 b 411 389 417 249 418 350 b 321 472 401 426 374 451 b 250 537 306 474 257 523 b 242 609 241 553 238 582 b 387 939 255 721 286 875 b 532 894 440 980 537 969 b 516 858 532 871 526 858 b 410 673 454 849 394 731 b 443 613 414 648 421 635 b 715 765 566 492 697 620 b 790 961 721 857 795 899 b 625 1133 798 1028 667 1116 b 455 1152 578 1147 502 1167 b 381 1155 424 1146 419 1147 b 276 1159 349 1162 297 1164 b 81 595 63 1094 -16 784 "},"D":{"ha":854,"x_min":0,"x_max":0,"o":"m 744 1098 b 830 657 925 1005 937 821 b 757 526 788 594 769 560 b 546 123 720 411 699 132 b 379 76 484 130 427 131 b 203 21 318 22 282 -4 b 107 154 132 38 105 62 b 192 557 108 287 209 415 b 102 918 194 692 164 820 b 70 992 81 950 74 967 b 218 1164 52 1072 142 1181 b 267 1172 222 1161 228 1162 b 396 1186 328 1187 355 1189 b 524 1144 463 1179 480 1174 b 744 1098 605 1083 677 1125 m 627 702 b 541 894 653 788 629 860 b 500 899 526 900 523 900 b 382 719 408 901 356 802 b 376 348 423 578 427 466 b 362 296 359 310 358 305 b 434 292 369 278 397 277 b 549 428 502 320 524 356 b 605 652 567 495 579 619 b 627 702 613 667 623 690 "},"d":{"ha":854,"x_min":0,"x_max":0,"o":"m 744 1098 b 524 1144 677 1125 605 1083 b 396 1186 480 1174 463 1179 b 267 1172 355 1189 328 1187 b 218 1164 228 1162 222 1161 b 70 992 142 1181 52 1072 b 102 918 74 967 81 950 b 192 557 164 820 194 692 b 107 154 209 415 108 287 b 203 21 105 62 132 38 b 379 76 282 -4 318 22 b 546 123 427 131 484 130 b 757 526 699 132 720 411 b 830 657 769 560 788 594 b 744 1098 937 821 925 1005 m 627 702 b 605 652 623 690 613 667 b 549 428 579 619 567 495 b 434 292 524 356 502 320 b 362 296 397 277 369 278 b 376 348 358 305 359 310 b 382 719 427 466 423 578 b 500 899 356 802 408 901 b 541 894 523 900 526 900 b 627 702 629 860 653 788 "},"E":{"ha":844,"x_min":0,"x_max":0,"o":"m 674 323 b 747 254 710 318 730 299 b 721 51 779 175 770 118 b 616 1 692 15 678 8 b 297 8 480 -20 435 21 b 138 -12 221 8 187 -17 b 71 326 -41 50 118 202 b 97 579 48 405 64 496 b 129 756 121 641 129 681 b 89 918 133 812 107 869 b 137 1130 67 998 71 1094 b 166 1139 140 1130 153 1134 b 308 1111 217 1161 258 1131 b 504 1116 377 1107 449 1104 b 681 1091 574 1128 630 1131 b 685 1001 681 1072 681 1006 b 747 906 701 979 755 933 b 699 812 747 876 729 841 b 476 801 658 763 529 773 b 305 798 427 831 334 816 b 280 749 295 789 289 778 b 402 618 238 634 290 561 b 525 679 483 668 495 674 b 714 576 615 693 696 649 b 663 404 728 522 697 442 b 477 390 622 357 538 375 b 243 318 363 422 282 419 b 244 227 237 305 235 238 b 287 191 251 213 264 202 b 523 210 348 162 403 261 b 674 323 552 277 596 335 "},"e":{"ha":844,"x_min":0,"x_max":0,"o":"m 674 323 b 523 210 596 335 552 277 b 287 191 403 261 348 162 b 244 227 264 202 251 213 b 243 318 235 238 237 305 b 477 390 282 419 363 422 b 663 404 538 375 622 357 b 714 576 697 442 728 522 b 525 679 696 649 615 693 b 402 618 495 674 483 668 b 280 749 290 561 238 634 b 305 798 289 778 295 789 b 476 801 334 816 427 831 b 699 812 529 773 658 763 b 747 906 729 841 747 876 b 685 1001 755 933 701 979 b 681 1091 681 1006 681 1072 b 504 1116 630 1131 574 1128 b 308 1111 449 1104 377 1107 b 166 1139 258 1131 217 1161 b 137 1130 153 1134 140 1130 b 89 918 71 1094 67 998 b 129 756 107 869 133 812 b 97 579 129 681 121 641 b 71 326 64 496 48 405 b 138 -12 118 202 -41 50 b 297 8 187 -17 221 8 b 616 1 435 21 480 -20 b 721 51 678 8 692 15 b 747 254 770 118 779 175 b 674 323 730 299 710 318 "},"È":{"ha":844,"x_min":0,"x_max":0,"o":"m 674 323 b 747 254 710 318 730 299 b 721 51 779 175 770 118 b 616 1 692 15 678 8 b 297 8 480 -20 435 21 b 138 -12 221 8 187 -17 b 71 326 -41 50 118 202 b 97 579 48 405 64 496 b 129 756 121 641 129 681 b 89 918 133 812 107 869 b 137 1130 67 998 71 1094 b 166 1139 140 1130 153 1134 b 308 1111 217 1161 258 1131 b 504 1116 377 1107 449 1104 b 681 1091 574 1128 630 1131 b 685 1001 681 1072 681 1006 b 747 906 701 979 755 933 b 699 812 747 876 729 841 b 476 801 658 763 529 773 b 305 798 427 831 334 816 b 280 749 295 789 289 778 b 402 618 238 634 290 561 b 525 679 483 668 495 674 b 714 576 615 693 696 649 b 663 404 728 522 697 442 b 477 390 622 357 538 375 b 243 318 363 422 282 419 b 244 227 237 305 235 238 b 287 191 251 213 264 202 b 523 210 348 162 403 261 b 674 323 552 277 596 335 "},"É":{"ha":844,"x_min":0,"x_max":0,"o":"m 674 323 b 523 210 596 335 552 277 b 287 191 403 261 348 162 b 244 227 264 202 251 213 b 243 318 235 238 237 305 b 477 390 282 419 363 422 b 663 404 538 375 622 357 b 714 576 697 442 728 522 b 525 679 696 649 615 693 b 402 618 495 674 483 668 b 280 749 290 561 238 634 b 305 798 289 778 295 789 b 476 801 334 816 427 831 b 699 812 529 773 658 763 b 747 906 729 841 747 876 b 685 1001 755 933 701 979 b 681 1091 681 1006 681 1072 b 504 1116 630 1131 574 1128 b 308 1111 449 1104 377 1107 b 166 1139 258 1131 217 1161 b 137 1130 153 1134 140 1130 b 89 918 71 1094 67 998 b 129 756 107 869 133 812 b 97 579 129 681 121 641 b 71 326 64 496 48 405 b 138 -12 118 202 -41 50 b 297 8 187 -17 221 8 b 616 1 435 21 480 -20 b 721 51 678 8 692 15 b 747 254 770 118 779 175 b 674 323 730 299 710 318 "},"Ê":{"ha":844,"x_min":0,"x_max":0,"o":"m 674 323 b 747 254 710 318 730 299 b 721 51 779 175 770 118 b 616 1 692 15 678 8 b 297 8 480 -20 435 21 b 138 -12 221 8 187 -17 b 71 326 -41 50 118 202 b 97 579 48 405 64 496 b 129 756 121 641 129 681 b 89 918 133 812 107 869 b 137 1130 67 998 71 1094 b 166 1139 140 1130 153 1134 b 308 1111 217 1161 258 1131 b 504 1116 377 1107 449 1104 b 681 1091 574 1128 630 1131 b 685 1001 681 1072 681 1006 b 747 906 701 979 755 933 b 699 812 747 876 729 841 b 476 801 658 763 529 773 b 305 798 427 831 334 816 b 280 749 295 789 289 778 b 402 618 238 634 290 561 b 525 679 483 668 495 674 b 714 576 615 693 696 649 b 663 404 728 522 697 442 b 477 390 622 357 538 375 b 243 318 363 422 282 419 b 244 227 237 305 235 238 b 287 191 251 213 264 202 b 523 210 348 162 403 261 b 674 323 552 277 596 335 "},"Ë":{"ha":844,"x_min":0,"x_max":0,"o":"m 674 323 b 523 210 596 335 552 277 b 287 191 403 261 348 162 b 244 227 264 202 251 213 b 243 318 235 238 237 305 b 477 390 282 419 363 422 b 663 404 538 375 622 357 b 714 576 697 442 728 522 b 525 679 696 649 615 693 b 402 618 495 674 483 668 b 280 749 290 561 238 634 b 305 798 289 778 295 789 b 476 801 334 816 427 831 b 699 812 529 773 658 763 b 747 906 729 841 747 876 b 685 1001 755 933 701 979 b 681 1091 681 1006 681 1072 b 504 1116 630 1131 574 1128 b 308 1111 449 1104 377 1107 b 166 1139 258 1131 217 1161 b 137 1130 153 1134 140 1130 b 89 918 71 1094 67 998 b 129 756 107 869 133 812 b 97 579 129 681 121 641 b 71 326 64 496 48 405 b 138 -12 118 202 -41 50 b 297 8 187 -17 221 8 b 616 1 435 21 480 -20 b 721 51 678 8 692 15 b 747 254 770 118 779 175 b 674 323 730 299 710 318 "},"è":{"ha":844,"x_min":0,"x_max":0,"o":"m 674 323 b 747 254 710 318 730 299 b 721 51 779 175 770 118 b 616 1 692 15 678 8 b 297 8 480 -20 435 21 b 138 -12 221 8 187 -17 b 71 326 -41 50 118 202 b 97 579 48 405 64 496 b 129 756 121 641 129 681 b 89 918 133 812 107 869 b 137 1130 67 998 71 1094 b 166 1139 140 1130 153 1134 b 308 1111 217 1161 258 1131 b 504 1116 377 1107 449 1104 b 681 1091 574 1128 630 1131 b 685 1001 681 1072 681 1006 b 747 906 701 979 755 933 b 699 812 747 876 729 841 b 476 801 658 763 529 773 b 305 798 427 831 334 816 b 280 749 295 789 289 778 b 402 618 238 634 290 561 b 525 679 483 668 495 674 b 714 576 615 693 696 649 b 663 404 728 522 697 442 b 477 390 622 357 538 375 b 243 318 363 422 282 419 b 244 227 237 305 235 238 b 287 191 251 213 264 202 b 523 210 348 162 403 261 b 674 323 552 277 596 335 "},"é":{"ha":844,"x_min":0,"x_max":0,"o":"m 674 323 b 523 210 596 335 552 277 b 287 191 403 261 348 162 b 244 227 264 202 251 213 b 243 318 235 238 237 305 b 477 390 282 419 363 422 b 663 404 538 375 622 357 b 714 576 697 442 728 522 b 525 679 696 649 615 693 b 402 618 495 674 483 668 b 280 749 290 561 238 634 b 305 798 289 778 295 789 b 476 801 334 816 427 831 b 699 812 529 773 658 763 b 747 906 729 841 747 876 b 685 1001 755 933 701 979 b 681 1091 681 1006 681 1072 b 504 1116 630 1131 574 1128 b 308 1111 449 1104 377 1107 b 166 1139 258 1131 217 1161 b 137 1130 153 1134 140 1130 b 89 918 71 1094 67 998 b 129 756 107 869 133 812 b 97 579 129 681 121 641 b 71 326 64 496 48 405 b 138 -12 118 202 -41 50 b 297 8 187 -17 221 8 b 616 1 435 21 480 -20 b 721 51 678 8 692 15 b 747 254 770 118 779 175 b 674 323 730 299 710 318 "},"ê":{"ha":844,"x_min":0,"x_max":0,"o":"m 674 323 b 747 254 710 318 730 299 b 721 51 779 175 770 118 b 616 1 692 15 678 8 b 297 8 480 -20 435 21 b 138 -12 221 8 187 -17 b 71 326 -41 50 118 202 b 97 579 48 405 64 496 b 129 756 121 641 129 681 b 89 918 133 812 107 869 b 137 1130 67 998 71 1094 b 166 1139 140 1130 153 1134 b 308 1111 217 1161 258 1131 b 504 1116 377 1107 449 1104 b 681 1091 574 1128 630 1131 b 685 1001 681 1072 681 1006 b 747 906 701 979 755 933 b 699 812 747 876 729 841 b 476 801 658 763 529 773 b 305 798 427 831 334 816 b 280 749 295 789 289 778 b 402 618 238 634 290 561 b 525 679 483 668 495 674 b 714 576 615 693 696 649 b 663 404 728 522 697 442 b 477 390 622 357 538 375 b 243 318 363 422 282 419 b 244 227 237 305 235 238 b 287 191 251 213 264 202 b 523 210 348 162 403 261 b 674 323 552 277 596 335 "},"ë":{"ha":844,"x_min":0,"x_max":0,"o":"m 674 323 b 523 210 596 335 552 277 b 287 191 403 261 348 162 b 244 227 264 202 251 213 b 243 318 235 238 237 305 b 477 390 282 419 363 422 b 663 404 538 375 622 357 b 714 576 697 442 728 522 b 525 679 696 649 615 693 b 402 618 495 674 483 668 b 280 749 290 561 238 634 b 305 798 289 778 295 789 b 476 801 334 816 427 831 b 699 812 529 773 658 763 b 747 906 729 841 747 876 b 685 1001 755 933 701 979 b 681 1091 681 1006 681 1072 b 504 1116 630 1131 574 1128 b 308 1111 449 1104 377 1107 b 166 1139 258 1131 217 1161 b 137 1130 153 1134 140 1130 b 89 918 71 1094 67 998 b 129 756 107 869 133 812 b 97 579 129 681 121 641 b 71 326 64 496 48 405 b 138 -12 118 202 -41 50 b 297 8 187 -17 221 8 b 616 1 435 21 480 -20 b 721 51 678 8 692 15 b 747 254 770 118 779 175 b 674 323 730 299 710 318 "},"F":{"ha":772,"x_min":0,"x_max":0,"o":"m 77 7 b 79 327 13 48 57 222 b 110 699 108 466 136 540 b 68 924 104 773 73 855 b 141 1152 64 1006 95 1105 b 177 1155 158 1172 169 1172 b 344 1132 241 1177 285 1177 b 547 1127 425 1082 453 1062 b 667 1163 597 1161 606 1163 b 837 998 775 1172 866 1110 b 588 803 799 881 742 732 b 311 725 467 843 350 868 b 470 642 292 632 399 636 b 558 673 497 646 511 651 b 765 572 665 733 791 705 b 575 411 754 512 642 402 b 456 455 518 412 501 422 b 313 443 408 500 337 504 b 327 205 293 392 353 257 b 204 -14 305 141 273 14 b 77 7 163 -26 109 -27 "},"f":{"ha":772,"x_min":0,"x_max":0,"o":"m 77 7 b 204 -14 109 -27 163 -26 b 327 205 273 14 305 141 b 313 443 353 257 293 392 b 456 455 337 504 408 500 b 575 411 501 422 518 412 b 765 572 642 402 754 512 b 558 673 791 705 665 733 b 470 642 511 651 497 646 b 311 725 399 636 292 632 b 588 803 350 868 467 843 b 837 998 742 732 799 881 b 667 1163 866 1110 775 1172 b 547 1127 606 1163 597 1161 b 344 1132 453 1062 425 1082 b 177 1155 285 1177 241 1177 b 141 1152 169 1172 158 1172 b 68 924 95 1105 64 1006 b 110 699 73 855 104 773 b 79 327 136 540 108 466 b 77 7 57 222 13 48 "},"G":{"ha":1024,"x_min":0,"x_max":0,"o":"m 108 174 b 25 508 128 321 40 401 b 129 969 13 651 25 872 b 530 1174 232 1084 363 1184 b 787 1011 646 1173 815 1140 b 805 668 772 906 851 768 b 672 576 777 592 747 558 b 602 572 638 584 626 583 b 516 625 561 554 518 574 b 595 845 507 683 624 738 b 437 966 571 917 513 970 b 225 668 298 964 173 801 b 265 596 241 629 243 625 b 301 325 331 517 318 418 b 614 191 317 193 511 47 b 524 304 631 246 594 275 b 474 430 457 326 412 371 b 592 477 500 454 553 475 b 678 443 627 485 649 456 b 809 512 721 461 745 515 b 993 395 873 516 982 464 b 822 184 998 232 847 263 b 769 5 813 125 823 41 b 633 -35 734 -28 678 -50 l 633 -35 b 419 7 560 -5 478 9 b 173 13 347 -5 223 -22 b 108 174 105 56 108 69 "},"g":{"ha":1024,"x_min":0,"x_max":0,"o":"m 108 174 b 173 13 108 69 105 56 b 419 7 223 -22 347 -5 b 633 -35 478 9 560 -5 l 633 -35 b 769 5 678 -50 734 -28 b 822 184 823 41 813 125 b 993 395 847 263 998 232 b 809 512 982 464 873 516 b 678 443 745 515 721 461 b 592 477 649 456 627 485 b 474 430 553 475 500 454 b 524 304 412 371 457 326 b 614 191 594 275 631 246 b 301 325 511 47 317 193 b 265 596 318 418 331 517 b 225 668 243 625 241 629 b 437 966 173 801 298 964 b 595 845 513 970 571 917 b 516 625 624 738 507 683 b 602 572 518 574 561 554 b 672 576 626 583 638 584 b 805 668 747 558 777 592 b 787 1011 851 768 772 906 b 530 1174 815 1140 646 1173 b 129 969 363 1184 232 1084 b 25 508 25 872 13 651 b 108 174 40 401 128 321 "},"H":{"ha":961,"x_min":0,"x_max":0,"o":"m 178 837 b 164 1187 97 975 22 1137 b 293 1195 215 1199 254 1201 b 451 1017 403 1205 452 1113 b 369 751 462 935 390 826 b 377 676 361 716 360 691 b 430 702 381 677 419 697 b 597 849 577 714 643 671 b 761 1146 547 998 595 1127 b 898 1086 826 1153 877 1131 b 874 761 930 1009 931 839 b 824 656 846 713 832 683 b 755 344 807 569 721 437 b 877 121 791 234 882 223 b 856 32 874 75 869 55 b 647 -43 818 -30 706 -58 b 536 494 312 70 666 420 b 357 439 493 512 386 494 b 379 203 332 367 389 273 b 356 80 379 141 374 114 b 139 -22 322 16 216 -58 b 109 515 -64 113 112 327 b 178 837 109 611 216 754 "},"h":{"ha":961,"x_min":0,"x_max":0,"o":"m 178 837 b 109 515 216 754 109 611 b 139 -22 112 327 -64 113 b 356 80 216 -58 322 16 b 379 203 374 114 379 141 b 357 439 389 273 332 367 b 536 494 386 494 493 512 b 647 -43 666 420 312 70 b 856 32 706 -58 818 -30 b 877 121 869 55 874 75 b 755 344 882 223 791 234 b 824 656 721 437 807 569 b 874 761 832 683 846 713 b 898 1086 931 839 930 1009 b 761 1146 877 1131 826 1153 b 597 849 595 1127 547 998 b 430 702 643 671 577 714 b 377 676 419 697 381 677 b 369 751 360 691 361 716 b 451 1017 390 826 462 935 b 293 1195 452 1113 403 1205 b 164 1187 254 1201 215 1199 b 178 837 22 1137 97 975 "},"I":{"ha":542,"x_min":0,"x_max":0,"o":"m 77 379 b 155 736 89 487 161 639 b 102 934 155 823 145 861 b 119 1137 62 996 69 1089 b 183 1163 144 1163 176 1175 b 241 1161 186 1157 212 1156 b 429 1051 326 1179 393 1121 b 400 720 473 991 433 806 b 372 599 376 654 370 631 b 419 467 373 564 380 545 b 477 217 473 357 496 308 b 391 109 467 189 453 172 b 283 14 329 46 302 23 b 108 95 224 -14 144 54 b 86 157 98 109 94 121 b 77 379 67 242 57 267 "},"i":{"ha":542,"x_min":0,"x_max":0,"o":"m 77 379 b 86 157 57 267 67 242 b 108 95 94 121 98 109 b 283 14 144 54 224 -14 b 391 109 302 23 329 46 b 477 217 453 172 467 189 b 419 467 496 308 473 357 b 372 599 380 545 373 564 b 400 720 370 631 376 654 b 429 1051 433 806 473 991 b 241 1161 393 1121 326 1179 b 183 1163 212 1156 186 1157 b 119 1137 176 1175 144 1163 b 102 934 69 1089 62 996 b 155 736 145 861 155 823 b 77 379 161 639 89 487 "},"Ì":{"ha":542,"x_min":0,"x_max":0,"o":"m 77 379 b 155 736 89 487 161 639 b 102 934 155 823 145 861 b 119 1137 62 996 69 1089 b 183 1163 144 1163 176 1175 b 241 1161 186 1157 212 1156 b 429 1051 326 1179 393 1121 b 400 720 473 991 433 806 b 372 599 376 654 370 631 b 419 467 373 564 380 545 b 477 217 473 357 496 308 b 391 109 467 189 453 172 b 283 14 329 46 302 23 b 108 95 224 -14 144 54 b 86 157 98 109 94 121 b 77 379 67 242 57 267 "},"Í":{"ha":542,"x_min":0,"x_max":0,"o":"m 77 379 b 86 157 57 267 67 242 b 108 95 94 121 98 109 b 283 14 144 54 224 -14 b 391 109 302 23 329 46 b 477 217 453 172 467 189 b 419 467 496 308 473 357 b 372 599 380 545 373 564 b 400 720 370 631 376 654 b 429 1051 433 806 473 991 b 241 1161 393 1121 326 1179 b 183 1163 212 1156 186 1157 b 119 1137 176 1175 144 1163 b 102 934 69 1089 62 996 b 155 736 145 861 155 823 b 77 379 161 639 89 487 "},"Î":{"ha":542,"x_min":0,"x_max":0,"o":"m 77 379 b 155 736 89 487 161 639 b 102 934 155 823 145 861 b 119 1137 62 996 69 1089 b 183 1163 144 1163 176 1175 b 241 1161 186 1157 212 1156 b 429 1051 326 1179 393 1121 b 400 720 473 991 433 806 b 372 599 376 654 370 631 b 419 467 373 564 380 545 b 477 217 473 357 496 308 b 391 109 467 189 453 172 b 283 14 329 46 302 23 b 108 95 224 -14 144 54 b 86 157 98 109 94 121 b 77 379 67 242 57 267 "},"Ï":{"ha":542,"x_min":0,"x_max":0,"o":"m 77 379 b 86 157 57 267 67 242 b 108 95 94 121 98 109 b 283 14 144 54 224 -14 b 391 109 302 23 329 46 b 477 217 453 172 467 189 b 419 467 496 308 473 357 b 372 599 380 545 373 564 b 400 720 370 631 376 654 b 429 1051 433 806 473 991 b 241 1161 393 1121 326 1179 b 183 1163 212 1156 186 1157 b 119 1137 176 1175 144 1163 b 102 934 69 1089 62 996 b 155 736 145 861 155 823 b 77 379 161 639 89 487 "},"ì":{"ha":542,"x_min":0,"x_max":0,"o":"m 77 379 b 155 736 89 487 161 639 b 102 934 155 823 145 861 b 119 1137 62 996 69 1089 b 183 1163 144 1163 176 1175 b 241 1161 186 1157 212 1156 b 429 1051 326 1179 393 1121 b 400 720 473 991 433 806 b 372 599 376 654 370 631 b 419 467 373 564 380 545 b 477 217 473 357 496 308 b 391 109 467 189 453 172 b 283 14 329 46 302 23 b 108 95 224 -14 144 54 b 86 157 98 109 94 121 b 77 379 67 242 57 267 "},"í":{"ha":542,"x_min":0,"x_max":0,"o":"m 77 379 b 86 157 57 267 67 242 b 108 95 94 121 98 109 b 283 14 144 54 224 -14 b 391 109 302 23 329 46 b 477 217 453 172 467 189 b 419 467 496 308 473 357 b 372 599 380 545 373 564 b 400 720 370 631 376 654 b 429 1051 433 806 473 991 b 241 1161 393 1121 326 1179 b 183 1163 212 1156 186 1157 b 119 1137 176 1175 144 1163 b 102 934 69 1089 62 996 b 155 736 145 861 155 823 b 77 379 161 639 89 487 "},"î":{"ha":542,"x_min":0,"x_max":0,"o":"m 77 379 b 155 736 89 487 161 639 b 102 934 155 823 145 861 b 119 1137 62 996 69 1089 b 183 1163 144 1163 176 1175 b 241 1161 186 1157 212 1156 b 429 1051 326 1179 393 1121 b 400 720 473 991 433 806 b 372 599 376 654 370 631 b 419 467 373 564 380 545 b 477 217 473 357 496 308 b 391 109 467 189 453 172 b 283 14 329 46 302 23 b 108 95 224 -14 144 54 b 86 157 98 109 94 121 b 77 379 67 242 57 267 "},"ï":{"ha":542,"x_min":0,"x_max":0,"o":"m 77 379 b 86 157 57 267 67 242 b 108 95 94 121 98 109 b 283 14 144 54 224 -14 b 391 109 302 23 329 46 b 477 217 453 172 467 189 b 419 467 496 308 473 357 b 372 599 380 545 373 564 b 400 720 370 631 376 654 b 429 1051 433 806 473 991 b 241 1161 393 1121 326 1179 b 183 1163 212 1156 186 1157 b 119 1137 176 1175 144 1163 b 102 934 69 1089 62 996 b 155 736 145 861 155 823 b 77 379 161 639 89 487 "},"J":{"ha":843,"x_min":0,"x_max":0,"o":"m 698 1177 b 808 962 832 1140 827 1076 b 678 677 799 871 704 762 b 669 592 667 650 670 621 b 759 379 691 547 740 423 b 716 91 800 283 775 181 b 573 45 664 21 646 10 b 273 17 466 90 397 63 b 148 -12 202 -11 178 -17 b 59 121 83 2 27 50 b 77 217 72 152 87 183 b -17 375 71 271 -25 316 b 86 522 -20 445 24 507 b 260 494 125 527 226 534 b 295 283 283 487 268 287 b 453 338 335 255 454 296 b 449 404 454 343 452 373 b 498 637 437 537 439 531 b 533 722 524 682 532 700 b 434 895 538 778 486 867 b 217 838 387 926 259 842 b 73 944 153 828 73 875 b 148 1109 66 1004 115 1063 b 279 1161 179 1142 229 1162 b 346 1142 313 1161 324 1158 b 529 1156 396 1106 479 1123 b 698 1177 581 1193 644 1189 "},"j":{"ha":843,"x_min":0,"x_max":0,"o":"m 698 1177 b 529 1156 644 1189 581 1193 b 346 1142 479 1123 396 1106 b 279 1161 324 1158 313 1161 b 148 1109 229 1162 179 1142 b 73 944 115 1063 66 1004 b 217 838 73 875 153 828 b 434 895 259 842 387 926 b 533 722 486 867 538 778 b 498 637 532 700 524 682 b 449 404 439 531 437 537 b 453 338 452 373 454 343 b 295 283 454 296 335 255 b 260 494 268 287 283 487 b 86 522 226 534 125 527 b -17 375 24 507 -20 445 b 77 217 -25 316 71 271 b 59 121 87 183 72 152 b 148 -12 27 50 83 2 b 273 17 178 -17 202 -11 b 573 45 397 63 466 90 b 716 91 646 10 664 21 b 759 379 775 181 800 283 b 669 592 740 423 691 547 b 678 677 670 621 667 650 b 808 962 704 762 799 871 b 698 1177 827 1076 832 1140 "},"K":{"ha":1001,"x_min":0,"x_max":0,"o":"m 924 1173 b 947 1006 977 1142 965 1071 b 709 746 928 899 791 769 b 551 722 677 738 567 739 b 481 638 522 706 489 667 b 555 604 473 611 481 607 b 621 593 602 602 604 601 b 717 504 658 575 704 532 b 769 364 731 469 743 377 b 885 295 788 340 853 315 b 926 134 912 273 935 184 b 846 -8 916 81 890 18 b 831 -11 846 -10 840 -11 b 678 69 769 -16 710 15 b 645 128 665 90 653 111 b 466 198 609 165 509 144 b 423 259 450 212 431 240 b 418 330 418 270 418 279 b 411 401 418 386 417 388 b 334 413 402 426 350 441 b 332 333 328 396 327 366 b 326 106 339 321 334 120 b 165 -18 302 22 243 -35 l 165 -18 b 61 184 65 20 68 51 b 115 599 55 328 68 478 b 73 903 154 688 112 746 l 73 951 b 95 1086 73 1004 78 1031 b 166 1176 120 1154 119 1171 b 367 1159 226 1173 291 1158 l 412 1159 l 431 1150 b 468 1068 466 1136 467 1105 b 434 987 466 1050 462 1039 b 451 938 414 940 389 884 b 549 943 486 970 513 970 b 673 1043 599 903 654 987 b 924 1173 716 1160 807 1216 "},"k":{"ha":1001,"x_min":0,"x_max":0,"o":"m 924 1173 b 673 1043 807 1216 716 1160 b 549 943 654 987 599 903 b 451 938 513 970 486 970 b 434 987 389 884 414 940 b 468 1068 462 1039 466 1050 b 431 1150 467 1105 466 1136 l 412 1159 l 367 1159 b 166 1176 291 1158 226 1173 b 95 1086 119 1171 120 1154 b 73 951 78 1031 73 1004 l 73 903 b 115 599 112 746 154 688 b 61 184 68 478 55 328 b 165 -18 68 51 65 20 l 165 -18 b 326 106 243 -35 302 22 b 332 333 334 120 339 321 b 334 413 327 366 328 396 b 411 401 350 441 402 426 b 418 330 417 388 418 386 b 423 259 418 279 418 270 b 466 198 431 240 450 212 b 645 128 509 144 609 165 b 678 69 653 111 665 90 b 831 -11 710 15 769 -16 b 846 -8 840 -11 846 -10 b 926 134 890 18 916 81 b 885 295 935 184 912 273 b 769 364 853 315 788 340 b 717 504 743 377 731 469 b 621 593 704 532 658 575 b 555 604 604 601 602 602 b 481 638 481 607 473 611 b 551 722 489 667 522 706 b 709 746 567 739 677 738 b 947 1006 791 769 928 899 b 924 1173 965 1071 977 1142 "},"L":{"ha":961,"x_min":0,"x_max":0,"o":"m 687 432 b 818 452 721 469 770 476 b 897 202 886 417 905 273 b 816 55 890 152 859 94 b 703 33 769 13 745 11 b 441 102 647 50 480 108 b 343 71 416 101 393 93 b 182 30 275 40 235 30 b 29 223 56 31 9 50 b 122 512 28 311 117 422 b 122 665 126 553 126 640 b 117 1108 88 813 30 961 b 184 1176 131 1133 164 1166 b 409 1034 269 1204 446 1167 b 356 839 405 1012 372 890 b 393 695 332 781 362 739 b 398 610 400 681 401 654 b 293 399 398 495 299 472 b 321 372 295 375 295 370 b 431 338 366 377 416 390 b 485 285 443 305 453 296 b 651 370 568 258 615 282 b 687 432 665 404 673 417 "},"l":{"ha":961,"x_min":0,"x_max":0,"o":"m 687 432 b 651 370 673 417 665 404 b 485 285 615 282 568 258 b 431 338 453 296 443 305 b 321 372 416 390 366 377 b 293 399 295 370 295 375 b 398 610 299 472 398 495 b 393 695 401 654 400 681 b 356 839 362 739 332 781 b 409 1034 372 890 405 1012 b 184 1176 446 1167 269 1204 b 117 1108 164 1166 131 1133 b 122 665 30 961 88 813 b 122 512 126 640 126 553 b 29 223 117 422 28 311 b 182 30 9 50 56 31 b 343 71 235 30 275 40 b 441 102 393 93 416 101 b 703 33 480 108 647 50 b 816 55 745 11 769 13 b 897 202 859 94 890 152 b 818 452 905 273 886 417 b 687 432 770 476 721 469 "},"M":{"ha":1119,"x_min":0,"x_max":0,"o":"m 986 784 b 936 574 942 688 922 657 b 984 471 940 558 944 550 b 1021 76 1048 360 1060 165 b 706 157 967 -39 687 21 b 802 265 707 204 769 234 b 802 329 807 274 807 295 b 790 423 798 352 796 404 b 741 532 767 460 734 479 b 783 812 733 572 799 794 b 728 776 776 831 746 811 b 689 465 688 683 688 568 l 682 450 b 541 423 658 402 592 389 b 434 680 481 443 478 693 b 350 614 411 680 362 642 b 372 522 339 589 347 554 b 458 353 401 477 444 401 b 480 160 470 314 478 210 b 423 36 482 111 475 49 b 112 267 265 -8 102 94 b 148 519 106 342 159 424 b 107 841 152 679 23 663 b 107 903 106 857 107 887 b 72 1004 96 930 69 986 b 266 1171 73 1091 172 1159 b 511 864 467 1211 521 1048 b 560 812 506 794 517 736 b 579 893 573 839 577 858 b 555 1073 589 939 540 1028 b 704 1127 582 1144 630 1165 b 771 1113 740 1111 756 1108 b 972 1159 830 1139 883 1221 b 1048 1064 1014 1136 1040 1104 b 986 784 1057 974 1038 888 "},"m":{"ha":1119,"x_min":0,"x_max":0,"o":"m 986 784 b 1048 1064 1038 888 1057 974 b 972 1159 1040 1104 1014 1136 b 771 1113 883 1221 830 1139 b 704 1127 756 1108 740 1111 b 555 1073 630 1165 582 1144 b 579 893 540 1028 589 939 b 560 812 577 858 573 839 b 511 864 517 736 506 794 b 266 1171 521 1048 467 1211 b 72 1004 172 1159 73 1091 b 107 903 69 986 96 930 b 107 841 107 887 106 857 b 148 519 23 663 152 679 b 112 267 159 424 106 342 b 423 36 102 94 265 -8 b 480 160 475 49 482 111 b 458 353 478 210 470 314 b 372 522 444 401 401 477 b 350 614 347 554 339 589 b 434 680 362 642 411 680 b 541 423 478 693 481 443 b 682 450 592 389 658 402 l 689 465 b 728 776 688 568 688 683 b 783 812 746 811 776 831 b 741 532 799 794 733 572 b 790 423 734 479 767 460 b 802 329 796 404 798 352 b 802 265 807 295 807 274 b 706 157 769 234 707 204 b 1021 76 687 21 967 -39 b 984 471 1060 165 1048 360 b 936 574 944 550 940 558 b 986 784 922 657 942 688 "},"N":{"ha":953,"x_min":0,"x_max":0,"o":"m 119 682 b 138 1113 33 838 35 978 b 203 1154 168 1157 170 1138 b 293 1182 229 1165 263 1183 b 411 1125 338 1186 395 1166 b 406 911 430 1064 436 977 b 381 826 392 875 386 853 b 381 759 376 796 376 770 b 479 627 394 730 451 663 b 561 567 513 582 534 567 b 596 775 609 573 591 679 b 600 1033 595 996 595 1010 b 844 1157 631 1178 731 1245 b 884 1040 873 1131 882 1103 b 820 569 898 946 831 698 b 874 183 823 463 929 261 b 783 55 853 145 803 75 b 617 74 731 -2 640 -9 b 612 291 609 104 606 224 b 533 379 618 363 609 373 b 472 401 495 382 480 387 b 462 442 470 405 465 423 b 432 514 456 481 446 505 b 344 496 408 530 357 520 b 368 263 327 457 376 301 b 256 27 368 170 337 71 b 162 34 221 10 187 12 b 139 404 87 131 92 270 b 167 533 158 462 167 505 b 119 682 167 602 151 610 "},"n":{"ha":953,"x_min":0,"x_max":0,"o":"m 119 682 b 167 533 151 610 167 602 b 139 404 167 505 158 462 b 162 34 92 270 87 131 b 256 27 187 12 221 10 b 368 263 337 71 368 170 b 344 496 376 301 327 457 b 432 514 357 520 408 530 b 462 442 446 505 456 481 b 472 401 465 423 470 405 b 533 379 480 387 495 382 b 612 291 609 373 618 363 b 617 74 606 224 609 104 b 783 55 640 -9 731 -2 b 874 183 803 75 853 145 b 820 569 929 261 823 463 b 884 1040 831 698 898 946 b 844 1157 882 1103 873 1131 b 600 1033 731 1245 631 1178 b 596 775 595 1010 595 996 b 561 567 591 679 609 573 b 479 627 534 567 513 582 b 381 759 451 663 394 730 b 381 826 376 770 376 796 b 406 911 386 853 392 875 b 411 1125 436 977 430 1064 b 293 1182 395 1166 338 1186 b 203 1154 263 1183 229 1165 b 138 1113 170 1138 168 1157 b 119 682 35 978 33 838 "},"Ñ":{"ha":953,"x_min":0,"x_max":0,"o":"m 119 682 b 138 1113 33 838 35 978 b 203 1154 168 1157 170 1138 b 293 1182 229 1165 263 1183 b 411 1125 338 1186 395 1166 b 406 911 430 1064 436 977 b 381 826 392 875 386 853 b 381 759 376 796 376 770 b 479 627 394 730 451 663 b 561 567 513 582 534 567 b 596 775 609 573 591 679 b 600 1033 595 996 595 1010 b 844 1157 631 1178 731 1245 b 884 1040 873 1131 882 1103 b 820 569 898 946 831 698 b 874 183 823 463 929 261 b 783 55 853 145 803 75 b 617 74 731 -2 640 -9 b 612 291 609 104 606 224 b 533 379 618 363 609 373 b 472 401 495 382 480 387 b 462 442 470 405 465 423 b 432 514 456 481 446 505 b 344 496 408 530 357 520 b 368 263 327 457 376 301 b 256 27 368 170 337 71 b 162 34 221 10 187 12 b 139 404 87 131 92 270 b 167 533 158 462 167 505 b 119 682 167 602 151 610 "},"ñ":{"ha":953,"x_min":0,"x_max":0,"o":"m 119 682 b 167 533 151 610 167 602 b 139 404 167 505 158 462 b 162 34 92 270 87 131 b 256 27 187 12 221 10 b 368 263 337 71 368 170 b 344 496 376 301 327 457 b 432 514 357 520 408 530 b 462 442 446 505 456 481 b 472 401 465 423 470 405 b 533 379 480 387 495 382 b 612 291 609 373 618 363 b 617 74 606 224 609 104 b 783 55 640 -9 731 -2 b 874 183 803 75 853 145 b 820 569 929 261 823 463 b 884 1040 831 698 898 946 b 844 1157 882 1103 873 1131 b 600 1033 731 1245 631 1178 b 596 775 595 1010 595 996 b 561 567 591 679 609 573 b 479 627 534 567 513 582 b 381 759 451 663 394 730 b 381 826 376 770 376 796 b 406 911 386 853 392 875 b 411 1125 436 977 430 1064 b 293 1182 395 1166 338 1186 b 203 1154 263 1183 229 1165 b 138 1113 170 1138 168 1157 b 119 682 35 978 33 838 "},"O":{"ha":842,"x_min":0,"x_max":0,"o":"m 302 1172 b 883 965 479 1180 829 1175 b 805 665 906 863 869 757 b 700 272 712 568 759 373 b 200 49 624 119 360 -24 b 22 519 20 147 -38 322 b 115 742 55 584 128 693 b 101 846 115 774 112 795 b 170 1161 72 978 79 1091 b 302 1172 186 1173 277 1167 m 580 430 b 569 878 628 608 429 647 b 444 991 571 922 507 998 b 304 843 374 990 325 911 b 324 641 289 801 321 714 b 285 375 336 506 330 467 b 263 311 265 337 262 329 b 407 237 260 238 351 221 b 580 430 484 262 560 341 "},"o":{"ha":842,"x_min":0,"x_max":0,"o":"m 302 1172 b 170 1161 277 1167 186 1173 b 101 846 79 1091 72 978 b 115 742 112 795 115 774 b 22 519 128 693 55 584 b 200 49 -38 322 20 147 b 700 272 360 -24 624 119 b 805 665 759 373 712 568 b 883 965 869 757 906 863 b 302 1172 829 1175 479 1180 m 580 430 b 407 237 560 341 484 262 b 263 311 351 221 260 238 b 285 375 262 329 265 337 b 324 641 330 467 336 506 b 304 843 321 714 289 801 b 444 991 325 911 374 990 b 569 878 507 998 571 922 b 580 430 429 647 628 608 "},"Ò":{"ha":842,"x_min":0,"x_max":0,"o":"m 302 1172 b 883 965 479 1180 829 1175 b 805 665 906 863 869 757 b 700 272 712 568 759 373 b 200 49 624 119 360 -24 b 22 519 20 147 -38 322 b 115 742 55 584 128 693 b 101 846 115 774 112 795 b 170 1161 72 978 79 1091 b 302 1172 186 1173 277 1167 m 580 430 b 569 878 628 608 429 647 b 444 991 571 922 507 998 b 304 843 374 990 325 911 b 324 641 289 801 321 714 b 285 375 336 506 330 467 b 263 311 265 337 262 329 b 407 237 260 238 351 221 b 580 430 484 262 560 341 "},"Ó":{"ha":842,"x_min":0,"x_max":0,"o":"m 302 1172 b 170 1161 277 1167 186 1173 b 101 846 79 1091 72 978 b 115 742 112 795 115 774 b 22 519 128 693 55 584 b 200 49 -38 322 20 147 b 700 272 360 -24 624 119 b 805 665 759 373 712 568 b 883 965 869 757 906 863 b 302 1172 829 1175 479 1180 m 580 430 b 407 237 560 341 484 262 b 263 311 351 221 260 238 b 285 375 262 329 265 337 b 324 641 330 467 336 506 b 304 843 321 714 289 801 b 444 991 325 911 374 990 b 569 878 507 998 571 922 b 580 430 429 647 628 608 "},"Ô":{"ha":842,"x_min":0,"x_max":0,"o":"m 302 1172 b 883 965 479 1180 829 1175 b 805 665 906 863 869 757 b 700 272 712 568 759 373 b 200 49 624 119 360 -24 b 22 519 20 147 -38 322 b 115 742 55 584 128 693 b 101 846 115 774 112 795 b 170 1161 72 978 79 1091 b 302 1172 186 1173 277 1167 m 580 430 b 569 878 628 608 429 647 b 444 991 571 922 507 998 b 304 843 374 990 325 911 b 324 641 289 801 321 714 b 285 375 336 506 330 467 b 263 311 265 337 262 329 b 407 237 260 238 351 221 b 580 430 484 262 560 341 "},"Õ":{"ha":842,"x_min":0,"x_max":0,"o":"m 302 1172 b 170 1161 277 1167 186 1173 b 101 846 79 1091 72 978 b 115 742 112 795 115 774 b 22 519 128 693 55 584 b 200 49 -38 322 20 147 b 700 272 360 -24 624 119 b 805 665 759 373 712 568 b 883 965 869 757 906 863 b 302 1172 829 1175 479 1180 m 580 430 b 407 237 560 341 484 262 b 263 311 351 221 260 238 b 285 375 262 329 265 337 b 324 641 330 467 336 506 b 304 843 321 714 289 801 b 444 991 325 911 374 990 b 569 878 507 998 571 922 b 580 430 429 647 628 608 "},"Ö":{"ha":842,"x_min":0,"x_max":0,"o":"m 302 1172 b 883 965 479 1180 829 1175 b 805 665 906 863 869 757 b 700 272 712 568 759 373 b 200 49 624 119 360 -24 b 22 519 20 147 -38 322 b 115 742 55 584 128 693 b 101 846 115 774 112 795 b 170 1161 72 978 79 1091 b 302 1172 186 1173 277 1167 m 580 430 b 569 878 628 608 429 647 b 444 991 571 922 507 998 b 304 843 374 990 325 911 b 324 641 289 801 321 714 b 285 375 336 506 330 467 b 263 311 265 337 262 329 b 407 237 260 238 351 221 b 580 430 484 262 560 341 "},"Ø":{"ha":842,"x_min":0,"x_max":0,"o":"m 302 1172 b 170 1161 277 1167 186 1173 b 101 846 79 1091 72 978 b 115 742 112 795 115 774 b 22 519 128 693 55 584 b 200 49 -38 322 20 147 b 700 272 360 -24 624 119 b 805 665 759 373 712 568 b 883 965 869 757 906 863 b 302 1172 829 1175 479 1180 m 580 430 b 407 237 560 341 484 262 b 263 311 351 221 260 238 b 285 375 262 329 265 337 b 324 641 330 467 336 506 b 304 843 321 714 289 801 b 444 991 325 911 374 990 b 569 878 507 998 571 922 b 580 430 429 647 628 608 "},"ò":{"ha":842,"x_min":0,"x_max":0,"o":"m 302 1172 b 883 965 479 1180 829 1175 b 805 665 906 863 869 757 b 700 272 712 568 759 373 b 200 49 624 119 360 -24 b 22 519 20 147 -38 322 b 115 742 55 584 128 693 b 101 846 115 774 112 795 b 170 1161 72 978 79 1091 b 302 1172 186 1173 277 1167 m 580 430 b 569 878 628 608 429 647 b 444 991 571 922 507 998 b 304 843 374 990 325 911 b 324 641 289 801 321 714 b 285 375 336 506 330 467 b 263 311 265 337 262 329 b 407 237 260 238 351 221 b 580 430 484 262 560 341 "},"ó":{"ha":842,"x_min":0,"x_max":0,"o":"m 302 1172 b 170 1161 277 1167 186 1173 b 101 846 79 1091 72 978 b 115 742 112 795 115 774 b 22 519 128 693 55 584 b 200 49 -38 322 20 147 b 700 272 360 -24 624 119 b 805 665 759 373 712 568 b 883 965 869 757 906 863 b 302 1172 829 1175 479 1180 m 580 430 b 407 237 560 341 484 262 b 263 311 351 221 260 238 b 285 375 262 329 265 337 b 324 641 330 467 336 506 b 304 843 321 714 289 801 b 444 991 325 911 374 990 b 569 878 507 998 571 922 b 580 430 429 647 628 608 "},"ô":{"ha":842,"x_min":0,"x_max":0,"o":"m 302 1172 b 883 965 479 1180 829 1175 b 805 665 906 863 869 757 b 700 272 712 568 759 373 b 200 49 624 119 360 -24 b 22 519 20 147 -38 322 b 115 742 55 584 128 693 b 101 846 115 774 112 795 b 170 1161 72 978 79 1091 b 302 1172 186 1173 277 1167 m 580 430 b 569 878 628 608 429 647 b 444 991 571 922 507 998 b 304 843 374 990 325 911 b 324 641 289 801 321 714 b 285 375 336 506 330 467 b 263 311 265 337 262 329 b 407 237 260 238 351 221 b 580 430 484 262 560 341 "},"õ":{"ha":842,"x_min":0,"x_max":0,"o":"m 302 1172 b 170 1161 277 1167 186 1173 b 101 846 79 1091 72 978 b 115 742 112 795 115 774 b 22 519 128 693 55 584 b 200 49 -38 322 20 147 b 700 272 360 -24 624 119 b 805 665 759 373 712 568 b 883 965 869 757 906 863 b 302 1172 829 1175 479 1180 m 580 430 b 407 237 560 341 484 262 b 263 311 351 221 260 238 b 285 375 262 329 265 337 b 324 641 330 467 336 506 b 304 843 321 714 289 801 b 444 991 325 911 374 990 b 569 878 507 998 571 922 b 580 430 429 647 628 608 "},"ö":{"ha":842,"x_min":0,"x_max":0,"o":"m 302 1172 b 883 965 479 1180 829 1175 b 805 665 906 863 869 757 b 700 272 712 568 759 373 b 200 49 624 119 360 -24 b 22 519 20 147 -38 322 b 115 742 55 584 128 693 b 101 846 115 774 112 795 b 170 1161 72 978 79 1091 b 302 1172 186 1173 277 1167 m 580 430 b 569 878 628 608 429 647 b 444 991 571 922 507 998 b 304 843 374 990 325 911 b 324 641 289 801 321 714 b 285 375 336 506 330 467 b 263 311 265 337 262 329 b 407 237 260 238 351 221 b 580 430 484 262 560 341 "},"ø":{"ha":842,"x_min":0,"x_max":0,"o":"m 302 1172 b 170 1161 277 1167 186 1173 b 101 846 79 1091 72 978 b 115 742 112 795 115 774 b 22 519 128 693 55 584 b 200 49 -38 322 20 147 b 700 272 360 -24 624 119 b 805 665 759 373 712 568 b 883 965 869 757 906 863 b 302 1172 829 1175 479 1180 m 580 430 b 407 237 560 341 484 262 b 263 311 351 221 260 238 b 285 375 262 329 265 337 b 324 641 330 467 336 506 b 304 843 321 714 289 801 b 444 991 325 911 374 990 b 569 878 507 998 571 922 b 580 430 429 647 628 608 "},"P":{"ha":817,"x_min":0,"x_max":0,"o":"m 814 917 b 809 619 693 812 792 732 b 627 385 832 508 736 397 b 492 438 591 375 532 417 b 361 424 457 451 391 444 b 347 325 340 410 335 378 b 359 216 360 263 362 242 b 121 17 353 117 219 -12 b 27 240 4 51 18 63 b 93 491 36 335 48 382 b 133 658 132 586 135 601 b 72 980 134 751 54 893 b 241 1180 62 1026 209 1167 b 327 1180 262 1184 306 1188 b 430 1130 356 1173 400 1151 b 670 1175 497 1069 555 1189 b 855 1074 761 1177 812 1151 b 814 917 882 1005 881 983 m 602 906 b 618 970 620 945 624 960 b 520 999 610 986 561 1001 b 408 952 498 1003 425 967 b 349 817 351 913 331 903 b 320 604 370 749 333 660 b 437 601 343 585 397 595 b 601 712 513 611 604 624 b 602 906 597 787 554 829 "},"p":{"ha":817,"x_min":0,"x_max":0,"o":"m 814 917 b 855 1074 881 983 882 1005 b 670 1175 812 1151 761 1177 b 430 1130 555 1189 497 1069 b 327 1180 400 1151 356 1173 b 241 1180 306 1188 262 1184 b 72 980 209 1167 62 1026 b 133 658 54 893 134 751 b 93 491 135 601 132 586 b 27 240 48 382 36 335 b 121 17 18 63 4 51 b 359 216 219 -12 353 117 b 347 325 362 242 360 263 b 361 424 335 378 340 410 b 492 438 391 444 457 451 b 627 385 532 417 591 375 b 809 619 736 397 832 508 b 814 917 792 732 693 812 m 602 906 b 601 712 554 829 597 787 b 437 601 604 624 513 611 b 320 604 397 595 343 585 b 349 817 333 660 370 749 b 408 952 331 903 351 913 b 520 999 425 967 498 1003 b 618 970 561 1001 610 986 b 602 906 624 960 620 945 "},"Q":{"ha":1096,"x_min":0,"x_max":0,"o":"m 994 190 b 919 -64 1019 90 1031 -38 b 814 -16 862 -71 868 -72 b 703 150 759 49 729 76 b 644 251 682 199 674 241 b 474 179 583 257 534 223 b 83 133 317 61 235 63 b -20 290 -4 179 -20 204 b 74 622 -19 393 23 533 b 88 795 115 703 115 712 b 213 1136 35 922 120 1083 b 281 1159 230 1145 261 1156 b 318 1175 302 1162 301 1166 b 422 1178 334 1183 379 1184 b 591 1182 462 1172 524 1174 b 683 1197 640 1188 637 1187 b 903 1144 765 1218 847 1183 b 942 929 980 1075 962 1051 b 815 495 919 698 811 697 b 994 190 798 349 973 307 m 733 640 b 706 859 759 738 652 740 b 662 1029 738 940 744 1004 b 417 980 578 1043 483 1022 b 321 824 378 953 343 897 b 303 664 303 765 299 727 b 288 575 305 628 302 607 b 237 507 275 544 263 528 b 191 449 210 485 202 475 b 193 236 153 361 146 302 b 335 214 220 206 292 186 b 494 428 417 258 495 335 b 435 592 496 492 425 535 b 568 663 442 667 493 683 b 675 596 637 646 650 638 b 695 565 685 580 694 567 b 733 640 701 558 724 604 "},"q":{"ha":1096,"x_min":0,"x_max":0,"o":"m 994 190 b 815 495 973 307 798 349 b 942 929 811 697 919 698 b 903 1144 962 1051 980 1075 b 683 1197 847 1183 765 1218 b 591 1182 637 1187 640 1188 b 422 1178 524 1174 462 1172 b 318 1175 379 1184 334 1183 b 281 1159 301 1166 302 1162 b 213 1136 261 1156 230 1145 b 88 795 120 1083 35 922 b 74 622 115 712 115 703 b -20 290 23 533 -19 393 b 83 133 -20 204 -4 179 b 474 179 235 63 317 61 b 644 251 534 223 583 257 b 703 150 674 241 682 199 b 814 -16 729 76 759 49 b 919 -64 868 -72 862 -71 b 994 190 1031 -38 1019 90 m 733 640 b 695 565 724 604 701 558 b 675 596 694 567 685 580 b 568 663 650 638 637 646 b 435 592 493 683 442 667 b 494 428 425 535 496 492 b 335 214 495 335 417 258 b 193 236 292 186 220 206 b 191 449 146 302 153 361 b 237 507 202 475 210 485 b 288 575 263 528 275 544 b 303 664 302 607 305 628 b 321 824 299 727 303 765 b 417 980 343 897 378 953 b 662 1029 483 1022 578 1043 b 706 859 744 1004 738 940 b 733 640 652 740 759 738 "},"R":{"ha":996,"x_min":0,"x_max":0,"o":"m 938 1073 b 907 735 1017 994 960 787 b 770 678 884 702 809 690 b 723 574 727 660 694 622 b 915 210 805 420 912 455 b 749 42 926 107 847 -41 b 514 408 694 103 552 336 b 380 625 471 476 497 656 b 344 298 263 566 350 395 b 139 -12 355 175 263 -55 b 52 284 53 42 54 180 b 72 412 53 331 56 347 b 78 685 100 527 97 552 b 228 1183 37 887 56 1074 b 461 1158 313 1221 404 1163 b 541 1179 490 1156 501 1158 b 633 1204 585 1201 597 1204 b 938 1073 788 1198 832 1185 m 683 818 b 707 899 706 822 716 857 b 590 1001 694 950 650 989 b 484 1001 571 1005 562 1005 b 379 990 404 997 397 997 b 350 963 349 980 350 981 b 311 788 351 893 332 836 b 425 749 323 751 390 737 b 525 823 431 744 500 811 b 643 823 551 837 610 831 b 683 818 664 819 678 817 "},"r":{"ha":996,"x_min":0,"x_max":0,"o":"m 938 1073 b 633 1204 832 1185 788 1198 b 541 1179 597 1204 585 1201 b 461 1158 501 1158 490 1156 b 228 1183 404 1163 313 1221 b 78 685 56 1074 37 887 b 72 412 97 552 100 527 b 52 284 56 347 53 331 b 139 -12 54 180 53 42 b 344 298 263 -55 355 175 b 380 625 350 395 263 566 b 514 408 497 656 471 476 b 749 42 552 336 694 103 b 915 210 847 -41 926 107 b 723 574 912 455 805 420 b 770 678 694 622 727 660 b 907 735 809 690 884 702 b 938 1073 960 787 1017 994 m 683 818 b 643 823 678 817 664 819 b 525 823 610 831 551 837 b 425 749 500 811 431 744 b 311 788 390 737 323 751 b 350 963 332 836 351 893 b 379 990 350 981 349 980 b 484 1001 397 997 404 997 b 590 1001 562 1005 571 1005 b 707 899 650 989 694 950 b 683 818 716 857 706 822 "},"S":{"ha":924,"x_min":0,"x_max":0,"o":"m 859 1004 b 905 799 928 965 919 856 b 773 599 865 718 800 719 b 765 573 769 586 766 575 b 619 612 721 560 655 577 b 640 915 526 702 675 843 b 490 959 613 963 541 967 b 370 855 446 950 395 906 b 403 580 331 777 347 625 b 539 509 433 551 491 521 b 708 517 578 497 660 517 b 782 485 745 518 754 514 b 857 268 857 414 860 360 b 830 184 850 245 836 203 b 731 71 815 131 787 99 b 527 19 676 45 584 9 b 355 35 462 37 426 62 b 250 24 316 22 285 19 b 151 87 210 30 207 32 b 91 148 123 114 96 141 b 27 330 65 193 22 271 b 138 453 26 394 81 437 b 273 412 172 460 234 441 b 403 230 318 382 358 263 b 579 267 464 161 574 174 b 409 408 577 340 477 405 b 358 416 392 410 369 413 b 152 611 271 442 167 522 b 127 644 150 624 149 625 b 55 890 57 702 40 817 b 98 996 63 922 85 976 b 351 1099 180 1089 168 1078 b 443 1110 394 1103 436 1108 b 690 1158 546 1174 559 1182 b 859 1004 879 1130 780 1060 "},"s":{"ha":924,"x_min":0,"x_max":0,"o":"m 859 1004 b 690 1158 780 1060 879 1130 b 443 1110 559 1182 546 1174 b 351 1099 436 1108 394 1103 b 98 996 168 1078 180 1089 b 55 890 85 976 63 922 b 127 644 40 817 57 702 b 152 611 149 625 150 624 b 358 416 167 522 271 442 b 409 408 369 413 392 410 b 579 267 477 405 577 340 b 403 230 574 174 464 161 b 273 412 358 263 318 382 b 138 453 234 441 172 460 b 27 330 81 437 26 394 b 91 148 22 271 65 193 b 151 87 96 141 123 114 b 250 24 207 32 210 30 b 355 35 285 19 316 22 b 527 19 426 62 462 37 b 731 71 584 9 676 45 b 830 184 787 99 815 131 b 857 268 836 203 850 245 b 782 485 860 360 857 414 b 708 517 754 514 745 518 b 539 509 660 517 578 497 b 403 580 491 521 433 551 b 370 855 347 625 331 777 b 490 959 395 906 446 950 b 640 915 541 967 613 963 b 619 612 675 843 526 702 b 765 573 655 577 721 560 b 773 599 766 575 769 586 b 905 799 800 719 865 718 b 859 1004 919 856 928 965 "},"T":{"ha":1049,"x_min":0,"x_max":0,"o":"m 887 1155 b 1054 1177 938 1191 1001 1189 b 1146 1041 1135 1154 1153 1128 b 1138 969 1143 1018 1141 992 b 1055 908 1132 929 1095 901 b 1054 908 1055 908 1054 908 b 840 875 970 929 922 856 b 777 876 816 879 809 879 b 646 809 691 866 677 874 b 670 645 622 773 650 673 b 705 539 685 620 692 574 b 745 345 727 469 734 434 b 709 91 754 216 785 167 b 559 25 666 53 614 8 b 465 274 386 104 461 115 b 436 362 463 311 460 321 b 440 582 391 437 414 478 b 475 784 468 680 477 735 b 120 779 447 1026 248 630 b 114 810 114 786 114 790 b 59 928 123 862 57 877 b 149 1161 54 1000 89 1118 b 249 1132 191 1186 207 1165 b 310 1092 297 1089 298 1089 b 531 1136 379 1123 474 1183 b 671 1094 563 1115 631 1102 b 887 1155 743 1081 824 1119 "},"t":{"ha":1049,"x_min":0,"x_max":0,"o":"m 887 1155 b 671 1094 824 1119 743 1081 b 531 1136 631 1102 563 1115 b 310 1092 474 1183 379 1123 b 249 1132 298 1089 297 1089 b 149 1161 207 1165 191 1186 b 59 928 89 1118 54 1000 b 114 810 57 877 123 862 b 120 779 114 790 114 786 b 475 784 248 630 447 1026 b 440 582 477 735 468 680 b 436 362 414 478 391 437 b 465 274 460 321 463 311 b 559 25 461 115 386 104 b 709 91 614 8 666 53 b 745 345 785 167 754 216 b 705 539 734 434 727 469 b 670 645 692 574 685 620 b 646 809 650 673 622 773 b 777 876 677 874 691 866 b 840 875 809 879 816 879 b 1054 908 922 856 970 929 b 1055 908 1054 908 1055 908 b 1138 969 1095 901 1132 929 b 1146 1041 1141 992 1143 1018 b 1054 1177 1153 1128 1135 1154 b 887 1155 1001 1189 938 1191 "},"U":{"ha":968,"x_min":0,"x_max":0,"o":"m 869 530 b 915 296 889 452 921 363 b 892 202 914 255 909 234 b 738 88 848 128 818 71 b 626 62 696 95 686 93 b 314 11 543 11 403 0 b 144 139 249 22 186 89 b 100 429 83 220 74 278 b 108 715 119 539 126 628 b 71 828 101 745 77 801 b 149 1152 65 905 62 1095 b 182 1164 166 1165 175 1168 b 251 1174 190 1159 215 1163 b 373 1182 289 1188 338 1190 b 463 1041 455 1159 483 1119 b 357 871 459 996 392 924 b 340 755 340 837 332 779 b 398 627 353 724 399 659 b 347 365 417 584 349 413 b 359 273 343 330 348 291 b 440 254 369 257 375 255 b 618 380 558 248 598 279 b 598 497 622 415 618 438 b 497 807 552 628 501 786 b 734 1188 476 945 548 1261 b 806 1103 763 1173 795 1135 b 838 628 835 999 764 760 b 869 530 847 604 861 560 "},"u":{"ha":968,"x_min":0,"x_max":0,"o":"m 869 530 b 838 628 861 560 847 604 b 806 1103 764 760 835 999 b 734 1188 795 1135 763 1173 b 497 807 548 1261 476 945 b 598 497 501 786 552 628 b 618 380 618 438 622 415 b 440 254 598 279 558 248 b 359 273 375 255 369 257 b 347 365 348 291 343 330 b 398 627 349 413 417 584 b 340 755 399 659 353 724 b 357 871 332 779 340 837 b 463 1041 392 924 459 996 b 373 1182 483 1119 455 1159 b 251 1174 338 1190 289 1188 b 182 1164 215 1163 190 1159 b 149 1152 175 1168 166 1165 b 71 828 62 1095 65 905 b 108 715 77 801 101 745 b 100 429 126 628 119 539 b 144 139 74 278 83 220 b 314 11 186 89 249 22 b 626 62 403 0 543 11 b 738 88 686 93 696 95 b 892 202 818 71 848 128 b 915 296 909 234 914 255 b 869 530 921 363 889 452 "},"Ù":{"ha":968,"x_min":0,"x_max":0,"o":"m 869 530 b 915 296 889 452 921 363 b 892 202 914 255 909 234 b 738 88 848 128 818 71 b 626 62 696 95 686 93 b 314 11 543 11 403 0 b 144 139 249 22 186 89 b 100 429 83 220 74 278 b 108 715 119 539 126 628 b 71 828 101 745 77 801 b 149 1152 65 905 62 1095 b 182 1164 166 1165 175 1168 b 251 1174 190 1159 215 1163 b 373 1182 289 1188 338 1190 b 463 1041 455 1159 483 1119 b 357 871 459 996 392 924 b 340 755 340 837 332 779 b 398 627 353 724 399 659 b 347 365 417 584 349 413 b 359 273 343 330 348 291 b 440 254 369 257 375 255 b 618 380 558 248 598 279 b 598 497 622 415 618 438 b 497 807 552 628 501 786 b 734 1188 476 945 548 1261 b 806 1103 763 1173 795 1135 b 838 628 835 999 764 760 b 869 530 847 604 861 560 "},"Ú":{"ha":968,"x_min":0,"x_max":0,"o":"m 869 530 b 838 628 861 560 847 604 b 806 1103 764 760 835 999 b 734 1188 795 1135 763 1173 b 497 807 548 1261 476 945 b 598 497 501 786 552 628 b 618 380 618 438 622 415 b 440 254 598 279 558 248 b 359 273 375 255 369 257 b 347 365 348 291 343 330 b 398 627 349 413 417 584 b 340 755 399 659 353 724 b 357 871 332 779 340 837 b 463 1041 392 924 459 996 b 373 1182 483 1119 455 1159 b 251 1174 338 1190 289 1188 b 182 1164 215 1163 190 1159 b 149 1152 175 1168 166 1165 b 71 828 62 1095 65 905 b 108 715 77 801 101 745 b 100 429 126 628 119 539 b 144 139 74 278 83 220 b 314 11 186 89 249 22 b 626 62 403 0 543 11 b 738 88 686 93 696 95 b 892 202 818 71 848 128 b 915 296 909 234 914 255 b 869 530 921 363 889 452 "},"Û":{"ha":968,"x_min":0,"x_max":0,"o":"m 869 530 b 915 296 889 452 921 363 b 892 202 914 255 909 234 b 738 88 848 128 818 71 b 626 62 696 95 686 93 b 314 11 543 11 403 0 b 144 139 249 22 186 89 b 100 429 83 220 74 278 b 108 715 119 539 126 628 b 71 828 101 745 77 801 b 149 1152 65 905 62 1095 b 182 1164 166 1165 175 1168 b 251 1174 190 1159 215 1163 b 373 1182 289 1188 338 1190 b 463 1041 455 1159 483 1119 b 357 871 459 996 392 924 b 340 755 340 837 332 779 b 398 627 353 724 399 659 b 347 365 417 584 349 413 b 359 273 343 330 348 291 b 440 254 369 257 375 255 b 618 380 558 248 598 279 b 598 497 622 415 618 438 b 497 807 552 628 501 786 b 734 1188 476 945 548 1261 b 806 1103 763 1173 795 1135 b 838 628 835 999 764 760 b 869 530 847 604 861 560 "},"Ü":{"ha":968,"x_min":0,"x_max":0,"o":"m 869 530 b 838 628 861 560 847 604 b 806 1103 764 760 835 999 b 734 1188 795 1135 763 1173 b 497 807 548 1261 476 945 b 598 497 501 786 552 628 b 618 380 618 438 622 415 b 440 254 598 279 558 248 b 359 273 375 255 369 257 b 347 365 348 291 343 330 b 398 627 349 413 417 584 b 340 755 399 659 353 724 b 357 871 332 779 340 837 b 463 1041 392 924 459 996 b 373 1182 483 1119 455 1159 b 251 1174 338 1190 289 1188 b 182 1164 215 1163 190 1159 b 149 1152 175 1168 166 1165 b 71 828 62 1095 65 905 b 108 715 77 801 101 745 b 100 429 126 628 119 539 b 144 139 74 278 83 220 b 314 11 186 89 249 22 b 626 62 403 0 543 11 b 738 88 686 93 696 95 b 892 202 818 71 848 128 b 915 296 909 234 914 255 b 869 530 921 363 889 452 "},"ù":{"ha":968,"x_min":0,"x_max":0,"o":"m 869 530 b 915 296 889 452 921 363 b 892 202 914 255 909 234 b 738 88 848 128 818 71 b 626 62 696 95 686 93 b 314 11 543 11 403 0 b 144 139 249 22 186 89 b 100 429 83 220 74 278 b 108 715 119 539 126 628 b 71 828 101 745 77 801 b 149 1152 65 905 62 1095 b 182 1164 166 1165 175 1168 b 251 1174 190 1159 215 1163 b 373 1182 289 1188 338 1190 b 463 1041 455 1159 483 1119 b 357 871 459 996 392 924 b 340 755 340 837 332 779 b 398 627 353 724 399 659 b 347 365 417 584 349 413 b 359 273 343 330 348 291 b 440 254 369 257 375 255 b 618 380 558 248 598 279 b 598 497 622 415 618 438 b 497 807 552 628 501 786 b 734 1188 476 945 548 1261 b 806 1103 763 1173 795 1135 b 838 628 835 999 764 760 b 869 530 847 604 861 560 "},"ú":{"ha":968,"x_min":0,"x_max":0,"o":"m 869 530 b 838 628 861 560 847 604 b 806 1103 764 760 835 999 b 734 1188 795 1135 763 1173 b 497 807 548 1261 476 945 b 598 497 501 786 552 628 b 618 380 618 438 622 415 b 440 254 598 279 558 248 b 359 273 375 255 369 257 b 347 365 348 291 343 330 b 398 627 349 413 417 584 b 340 755 399 659 353 724 b 357 871 332 779 340 837 b 463 1041 392 924 459 996 b 373 1182 483 1119 455 1159 b 251 1174 338 1190 289 1188 b 182 1164 215 1163 190 1159 b 149 1152 175 1168 166 1165 b 71 828 62 1095 65 905 b 108 715 77 801 101 745 b 100 429 126 628 119 539 b 144 139 74 278 83 220 b 314 11 186 89 249 22 b 626 62 403 0 543 11 b 738 88 686 93 696 95 b 892 202 818 71 848 128 b 915 296 909 234 914 255 b 869 530 921 363 889 452 "},"û":{"ha":968,"x_min":0,"x_max":0,"o":"m 869 530 b 915 296 889 452 921 363 b 892 202 914 255 909 234 b 738 88 848 128 818 71 b 626 62 696 95 686 93 b 314 11 543 11 403 0 b 144 139 249 22 186 89 b 100 429 83 220 74 278 b 108 715 119 539 126 628 b 71 828 101 745 77 801 b 149 1152 65 905 62 1095 b 182 1164 166 1165 175 1168 b 251 1174 190 1159 215 1163 b 373 1182 289 1188 338 1190 b 463 1041 455 1159 483 1119 b 357 871 459 996 392 924 b 340 755 340 837 332 779 b 398 627 353 724 399 659 b 347 365 417 584 349 413 b 359 273 343 330 348 291 b 440 254 369 257 375 255 b 618 380 558 248 598 279 b 598 497 622 415 618 438 b 497 807 552 628 501 786 b 734 1188 476 945 548 1261 b 806 1103 763 1173 795 1135 b 838 628 835 999 764 760 b 869 530 847 604 861 560 "},"ü":{"ha":968,"x_min":0,"x_max":0,"o":"m 869 530 b 838 628 861 560 847 604 b 806 1103 764 760 835 999 b 734 1188 795 1135 763 1173 b 497 807 548 1261 476 945 b 598 497 501 786 552 628 b 618 380 618 438 622 415 b 440 254 598 279 558 248 b 359 273 375 255 369 257 b 347 365 348 291 343 330 b 398 627 349 413 417 584 b 340 755 399 659 353 724 b 357 871 332 779 340 837 b 463 1041 392 924 459 996 b 373 1182 483 1119 455 1159 b 251 1174 338 1190 289 1188 b 182 1164 215 1163 190 1159 b 149 1152 175 1168 166 1165 b 71 828 62 1095 65 905 b 108 715 77 801 101 745 b 100 429 126 628 119 539 b 144 139 74 278 83 220 b 314 11 186 89 249 22 b 626 62 403 0 543 11 b 738 88 686 93 696 95 b 892 202 818 71 848 128 b 915 296 909 234 914 255 b 869 530 921 363 889 452 "},"V":{"ha":951,"x_min":0,"x_max":0,"o":"m 933 1152 b 1023 1114 977 1150 1011 1136 b 988 846 1032 1026 1013 955 b 789 371 950 648 843 559 b 734 230 767 305 761 288 b 640 32 708 178 670 53 b 578 9 616 8 607 7 b 406 142 500 16 455 81 b 327 343 362 197 350 283 b 181 582 294 421 171 474 b 191 741 175 628 200 712 b 62 997 185 804 31 958 b 142 1146 67 1015 129 1132 b 211 1175 158 1165 176 1172 b 246 1172 239 1177 242 1177 b 302 1166 250 1168 255 1167 b 453 1114 362 1166 430 1152 b 411 840 490 1047 385 899 b 448 767 416 816 425 799 b 485 622 488 711 492 695 b 538 430 478 537 486 473 b 630 578 580 418 626 533 b 664 777 633 630 694 712 b 933 1152 618 915 772 1168 "},"v":{"ha":951,"x_min":0,"x_max":0,"o":"m 933 1152 b 664 777 772 1168 618 915 b 630 578 694 712 633 630 b 538 430 626 533 580 418 b 485 622 486 473 478 537 b 448 767 492 695 488 711 b 411 840 425 799 416 816 b 453 1114 385 899 490 1047 b 302 1166 430 1152 362 1166 b 246 1172 255 1167 250 1168 b 211 1175 242 1177 239 1177 b 142 1146 176 1172 158 1165 b 62 997 129 1132 67 1015 b 191 741 31 958 185 804 b 181 582 200 712 175 628 b 327 343 171 474 294 421 b 406 142 350 283 362 197 b 578 9 455 81 500 16 b 640 32 607 7 616 8 b 734 230 670 53 708 178 b 789 371 761 288 767 305 b 988 846 843 559 950 648 b 1023 1114 1013 955 1032 1026 b 933 1152 1011 1136 977 1150 "},"W":{"ha":1057,"x_min":0,"x_max":0,"o":"m 1093 1109 b 1095 846 1118 1056 1102 938 b 1046 734 1088 797 1074 766 b 957 568 999 682 982 650 b 917 306 925 457 920 427 b 761 50 916 153 898 66 b 650 202 650 48 627 96 b 655 312 656 238 665 282 b 576 311 641 358 607 357 b 511 164 554 278 541 248 b 365 1 482 89 453 -9 b 309 86 325 12 325 40 b 205 310 282 177 258 230 b 142 419 162 376 151 395 b 150 691 117 478 122 624 b 118 850 171 770 175 766 b 69 1016 72 914 50 942 b 151 1129 84 1068 128 1129 b 170 1137 155 1129 163 1133 b 250 1158 187 1149 209 1154 b 503 981 388 1175 500 1125 b 372 680 508 915 428 755 b 329 393 302 585 271 487 b 476 472 366 339 463 417 b 497 742 484 507 476 710 b 633 952 532 856 551 918 b 687 688 709 969 693 764 b 694 538 680 624 674 585 b 788 543 724 487 788 468 b 909 1120 772 727 764 1023 b 1093 1109 961 1149 1059 1161 "},"w":{"ha":1057,"x_min":0,"x_max":0,"o":"m 1093 1109 b 909 1120 1059 1161 961 1149 b 788 543 764 1023 772 727 b 694 538 788 468 724 487 b 687 688 674 585 680 624 b 633 952 693 764 709 969 b 497 742 551 918 532 856 b 476 472 476 710 484 507 b 329 393 463 417 366 339 b 372 680 271 487 302 585 b 503 981 428 755 508 915 b 250 1158 500 1125 388 1175 b 170 1137 209 1154 187 1149 b 151 1129 163 1133 155 1129 b 69 1016 128 1129 84 1068 b 118 850 50 942 72 914 b 150 691 175 766 171 770 b 142 419 122 624 117 478 b 205 310 151 395 162 376 b 309 86 258 230 282 177 b 365 1 325 40 325 12 b 511 164 453 -9 482 89 b 576 311 541 248 554 278 b 655 312 607 357 641 358 b 650 202 665 282 656 238 b 761 50 627 96 650 48 b 917 306 898 66 916 153 b 957 568 920 427 925 457 b 1046 734 982 650 999 682 b 1095 846 1074 766 1088 797 b 1093 1109 1102 938 1118 1056 "},"X":{"ha":1006,"x_min":0,"x_max":0,"o":"m 1016 1069 b 1068 953 1048 1038 1065 1000 b 929 751 1080 892 982 804 b 749 534 846 680 845 590 b 686 485 718 512 704 501 b 882 117 797 368 924 260 b 825 43 869 80 851 56 b 725 46 801 31 780 32 b 539 188 607 75 594 85 b 514 233 527 211 516 232 b 473 187 512 236 501 223 b 379 89 422 123 402 102 b 179 33 324 60 242 23 b 103 142 120 43 68 83 b 345 401 158 251 258 322 b 406 463 381 430 407 456 b 262 691 388 544 338 627 b 87 1098 94 837 26 943 b 123 1108 107 1115 104 1095 b 302 1086 175 1136 260 1141 b 420 916 357 1041 359 936 b 481 872 448 901 466 888 b 617 760 594 740 513 685 b 724 949 664 797 704 879 b 743 1002 729 969 738 993 b 1016 1069 777 1069 944 1155 "},"x":{"ha":1006,"x_min":0,"x_max":0,"o":"m 1016 1069 b 743 1002 944 1155 777 1069 b 724 949 738 993 729 969 b 617 760 704 879 664 797 b 481 872 513 685 594 740 b 420 916 466 888 448 901 b 302 1086 359 936 357 1041 b 123 1108 260 1141 175 1136 b 87 1098 104 1095 107 1115 b 262 691 26 943 94 837 b 406 463 338 627 388 544 b 345 401 407 456 381 430 b 103 142 258 322 158 251 b 179 33 68 83 120 43 b 379 89 242 23 324 60 b 473 187 402 102 422 123 b 514 233 501 223 512 236 b 539 188 516 232 527 211 b 725 46 594 85 607 75 b 825 43 780 32 801 31 b 882 117 851 56 869 80 b 686 485 924 260 797 368 b 749 534 704 501 718 512 b 929 751 845 590 846 680 b 1068 953 982 804 1080 892 b 1016 1069 1065 1000 1048 1038 "},"Y":{"ha":758,"x_min":0,"x_max":0,"o":"m 768 1147 b 781 773 832 1105 788 944 b 740 610 774 711 758 647 b 621 524 724 561 663 545 b 578 399 579 495 564 452 b 561 116 595 322 598 186 b 509 43 547 90 530 63 b 480 11 503 30 494 19 b 406 3 459 -1 432 -2 b 392 6 401 3 397 4 b 391 6 392 6 391 6 b 329 44 366 14 343 27 b 350 290 271 111 324 222 b 358 445 367 335 364 397 b 336 536 354 471 348 506 b 143 576 276 543 185 530 b 126 822 101 618 96 759 b 93 993 147 889 138 902 b 77 1031 86 1006 79 1023 b 163 1162 62 1118 158 1158 b 246 1180 183 1176 191 1178 b 359 1153 310 1182 319 1180 b 347 864 446 1110 387 966 b 343 756 326 815 313 787 b 444 761 361 739 430 772 b 473 642 476 758 447 659 b 539 682 494 621 527 659 b 528 827 561 707 537 791 b 530 1032 524 847 525 1007 b 768 1147 546 1125 677 1206 "},"y":{"ha":758,"x_min":0,"x_max":0,"o":"m 768 1147 b 530 1032 677 1206 546 1125 b 528 827 525 1007 524 847 b 539 682 537 791 561 707 b 473 642 527 659 494 621 b 444 761 447 659 476 758 b 343 756 430 772 361 739 b 347 864 313 787 326 815 b 359 1153 387 966 446 1110 b 246 1180 319 1180 310 1182 b 163 1162 191 1178 183 1176 b 77 1031 158 1158 62 1118 b 93 993 79 1023 86 1006 b 126 822 138 902 147 889 b 143 576 96 759 101 618 b 336 536 185 530 276 543 b 358 445 348 506 354 471 b 350 290 364 397 367 335 b 329 44 324 222 271 111 b 391 6 343 27 366 14 b 392 6 391 6 392 6 b 406 3 397 4 401 3 b 480 11 432 -2 459 -1 b 509 43 494 19 503 30 b 561 116 530 63 547 90 b 578 399 598 186 595 322 b 621 524 564 452 579 495 b 740 610 663 545 724 561 b 781 773 758 647 774 711 b 768 1147 788 944 832 1105 "},"Ý":{"ha":758,"x_min":0,"x_max":0,"o":"m 768 1147 b 781 773 832 1105 788 944 b 740 610 774 711 758 647 b 621 524 724 561 663 545 b 578 399 579 495 564 452 b 561 116 595 322 598 186 b 509 43 547 90 530 63 b 480 11 503 30 494 19 b 406 3 459 -1 432 -2 b 392 6 401 3 397 4 b 391 6 392 6 391 6 b 329 44 366 14 343 27 b 350 290 271 111 324 222 b 358 445 367 335 364 397 b 336 536 354 471 348 506 b 143 576 276 543 185 530 b 126 822 101 618 96 759 b 93 993 147 889 138 902 b 77 1031 86 1006 79 1023 b 163 1162 62 1118 158 1158 b 246 1180 183 1176 191 1178 b 359 1153 310 1182 319 1180 b 347 864 446 1110 387 966 b 343 756 326 815 313 787 b 444 761 361 739 430 772 b 473 642 476 758 447 659 b 539 682 494 621 527 659 b 528 827 561 707 537 791 b 530 1032 524 847 525 1007 b 768 1147 546 1125 677 1206 "},"ý":{"ha":758,"x_min":0,"x_max":0,"o":"m 768 1147 b 530 1032 677 1206 546 1125 b 528 827 525 1007 524 847 b 539 682 537 791 561 707 b 473 642 527 659 494 621 b 444 761 447 659 476 758 b 343 756 430 772 361 739 b 347 864 313 787 326 815 b 359 1153 387 966 446 1110 b 246 1180 319 1180 310 1182 b 163 1162 191 1178 183 1176 b 77 1031 158 1158 62 1118 b 93 993 79 1023 86 1006 b 126 822 138 902 147 889 b 143 576 96 759 101 618 b 336 536 185 530 276 543 b 358 445 348 506 354 471 b 350 290 364 397 367 335 b 329 44 324 222 271 111 b 391 6 343 27 366 14 b 392 6 391 6 392 6 b 406 3 397 4 401 3 b 480 11 432 -2 459 -1 b 509 43 494 19 503 30 b 561 116 530 63 547 90 b 578 399 598 186 595 322 b 621 524 564 452 579 495 b 740 610 663 545 724 561 b 781 773 758 647 774 711 b 768 1147 788 944 832 1105 "},"ÿ":{"ha":758,"x_min":0,"x_max":0,"o":"m 768 1147 b 781 773 832 1105 788 944 b 740 610 774 711 758 647 b 621 524 724 561 663 545 b 578 399 579 495 564 452 b 561 116 595 322 598 186 b 509 43 547 90 530 63 b 480 11 503 30 494 19 b 406 3 459 -1 432 -2 b 392 6 401 3 397 4 b 391 6 392 6 391 6 b 329 44 366 14 343 27 b 350 290 271 111 324 222 b 358 445 367 335 364 397 b 336 536 354 471 348 506 b 143 576 276 543 185 530 b 126 822 101 618 96 759 b 93 993 147 889 138 902 b 77 1031 86 1006 79 1023 b 163 1162 62 1118 158 1158 b 246 1180 183 1176 191 1178 b 359 1153 310 1182 319 1180 b 347 864 446 1110 387 966 b 343 756 326 815 313 787 b 444 761 361 739 430 772 b 473 642 476 758 447 659 b 539 682 494 621 527 659 b 528 827 561 707 537 791 b 530 1032 524 847 525 1007 b 768 1147 546 1125 677 1206 "},"Ÿ":{"ha":758,"x_min":0,"x_max":0,"o":"m 768 1147 b 530 1032 677 1206 546 1125 b 528 827 525 1007 524 847 b 539 682 537 791 561 707 b 473 642 527 659 494 621 b 444 761 447 659 476 758 b 343 756 430 772 361 739 b 347 864 313 787 326 815 b 359 1153 387 966 446 1110 b 246 1180 319 1180 310 1182 b 163 1162 191 1178 183 1176 b 77 1031 158 1158 62 1118 b 93 993 79 1023 86 1006 b 126 822 138 902 147 889 b 143 576 96 759 101 618 b 336 536 185 530 276 543 b 358 445 348 506 354 471 b 350 290 364 397 367 335 b 329 44 324 222 271 111 b 391 6 343 27 366 14 b 392 6 391 6 392 6 b 406 3 397 4 401 3 b 480 11 432 -2 459 -1 b 509 43 494 19 503 30 b 561 116 530 63 547 90 b 578 399 598 186 595 322 b 621 524 564 452 579 495 b 740 610 663 545 724 561 b 781 773 758 647 774 711 b 768 1147 788 944 832 1105 "},"Z":{"ha":976,"x_min":0,"x_max":0,"o":"m 900 1142 b 927 1063 917 1130 925 1107 b 813 857 935 990 861 878 b 736 801 775 835 759 824 b 716 600 674 740 690 687 b 565 427 761 490 679 427 b 456 411 511 426 493 423 b 324 287 365 381 325 344 b 343 248 324 268 330 255 b 475 246 361 237 437 236 b 828 390 588 275 699 443 b 897 124 889 369 921 193 b 752 -17 879 68 812 7 b 653 -25 731 -29 676 -27 b 581 24 629 -20 615 -11 b 106 18 404 216 288 27 b 134 424 -133 45 -14 295 b 278 535 170 468 250 497 b 433 716 295 639 319 676 b 600 898 528 748 619 807 b 464 961 593 935 513 962 b 368 929 430 961 417 956 b 180 863 283 881 233 864 b 87 920 136 860 107 887 b 207 1192 50 1031 89 1080 b 382 1169 240 1231 353 1201 b 458 1147 406 1148 411 1146 b 728 1175 512 1143 651 1174 b 807 1165 768 1175 771 1174 b 900 1142 840 1156 877 1153 "},"z":{"ha":976,"x_min":0,"x_max":0,"o":"m 900 1142 b 807 1165 877 1153 840 1156 b 728 1175 771 1174 768 1175 b 458 1147 651 1174 512 1143 b 382 1169 411 1146 406 1148 b 207 1192 353 1201 240 1231 b 87 920 89 1080 50 1031 b 180 863 107 887 136 860 b 368 929 233 864 283 881 b 464 961 417 956 430 961 b 600 898 513 962 593 935 b 433 716 619 807 528 748 b 278 535 319 676 295 639 b 134 424 250 497 170 468 b 106 18 -14 295 -133 45 b 581 24 288 27 404 216 b 653 -25 615 -11 629 -20 b 752 -17 676 -27 731 -29 b 897 124 812 7 879 68 b 828 390 921 193 889 369 b 475 246 699 443 588 275 b 343 248 437 236 361 237 b 324 287 330 255 324 268 b 456 411 325 344 365 381 b 565 427 493 423 511 426 b 716 600 679 427 761 490 b 736 801 690 687 674 740 b 813 857 759 824 775 835 b 927 1063 861 878 935 990 b 900 1142 925 1107 917 1130 "},"[":{"ha":768,"x_min":0,"x_max":0,"o":"m 661 136 b 677 61 681 116 686 94 b 625 -1 669 26 651 6 b 501 0 588 -11 551 -11 b 328 -24 438 13 407 9 b 280 -40 311 -31 289 -38 b 179 -44 259 -45 198 -47 b 131 -15 154 -41 140 -32 b 128 20 127 -9 127 -2 b 131 60 129 35 131 53 b 120 89 133 73 133 73 b 91 150 104 109 95 128 b 104 264 87 172 90 200 b 108 479 127 368 128 394 b 108 646 90 558 90 580 b 126 779 124 704 126 720 b 104 918 126 841 123 861 b 90 1038 86 976 82 1003 b 158 1105 100 1086 120 1105 b 194 1113 166 1105 180 1108 b 237 1120 212 1118 222 1120 b 276 1113 252 1120 260 1119 b 330 1111 299 1103 307 1103 b 417 1125 365 1123 386 1126 b 493 1105 455 1123 485 1115 b 509 1097 498 1099 502 1097 b 545 1080 521 1097 537 1089 b 554 1030 554 1070 556 1054 b 514 964 552 999 538 975 b 466 956 501 957 497 957 b 384 957 448 956 411 956 b 251 931 300 961 275 956 b 264 831 231 911 233 896 b 291 728 289 780 294 762 b 273 632 289 698 284 674 b 286 527 258 580 260 562 b 296 394 305 501 306 482 b 266 253 288 325 281 292 b 242 172 244 194 242 189 b 251 141 242 157 243 154 b 293 117 263 124 279 114 b 340 138 297 118 318 127 b 458 164 389 162 402 165 b 522 171 499 164 500 164 b 554 181 534 176 548 180 b 661 136 579 185 636 161 "},"\\":{"ha":1047,"x_min":0,"x_max":0,"o":"m 906 -26 b 961 -125 955 -82 961 -93 b 953 -163 961 -144 960 -149 b 878 -205 936 -198 889 -224 b 867 -202 876 -203 873 -201 b 837 -192 861 -203 853 -200 b 768 -139 810 -178 788 -162 b 707 -8 738 -107 725 -79 b 670 95 693 45 687 63 b 550 226 646 141 614 176 b 457 367 472 286 464 299 b 448 427 455 389 451 416 b 369 558 437 471 411 514 b 245 658 338 590 307 615 b 103 795 152 722 123 750 b 86 885 89 827 86 841 b 94 941 86 924 86 925 b 160 993 107 969 130 987 b 278 958 202 1001 252 987 b 300 877 295 939 298 928 b 317 784 301 830 305 810 b 450 674 341 733 374 705 b 583 582 532 639 559 620 b 622 435 604 550 613 515 b 641 344 629 373 631 365 b 740 255 655 317 673 301 b 816 183 773 232 799 207 b 862 68 839 149 848 128 b 906 -26 872 22 881 2 "},"]":{"ha":768,"x_min":0,"x_max":0,"o":"m 660 479 b 663 264 640 394 641 368 b 677 150 677 200 681 172 b 648 89 673 128 664 109 b 636 60 635 73 635 73 b 639 20 637 53 639 35 b 637 -15 641 -2 640 -9 b 589 -44 628 -32 614 -41 b 488 -40 569 -47 509 -45 b 439 -24 478 -38 457 -31 b 267 0 361 9 330 13 b 143 -1 216 -11 179 -11 b 90 61 116 6 99 26 b 107 136 82 94 86 116 b 213 181 132 161 189 185 b 246 171 219 180 234 176 b 310 164 268 164 269 164 b 428 138 366 165 379 162 b 475 117 449 127 471 118 b 516 141 488 114 505 124 b 526 172 525 154 526 157 b 501 253 525 189 524 194 b 472 394 486 292 479 325 b 482 527 462 482 463 501 b 495 632 508 562 510 580 b 477 728 483 674 479 698 b 504 831 474 762 479 780 b 517 931 535 896 536 911 b 384 957 492 956 467 961 b 302 956 357 956 320 956 b 253 964 271 957 267 957 b 213 1030 230 975 216 999 b 222 1080 211 1054 214 1070 b 259 1097 231 1089 247 1097 b 274 1105 265 1097 269 1099 b 351 1125 283 1115 312 1123 b 437 1111 382 1126 402 1123 b 492 1113 461 1103 469 1103 b 531 1120 508 1119 516 1120 b 573 1113 545 1120 556 1118 b 610 1105 587 1108 602 1105 b 678 1038 648 1105 668 1086 b 663 918 685 1003 682 976 b 642 779 645 861 642 841 b 660 646 642 720 644 704 b 660 479 678 580 678 558 "},"_":{"ha":883,"x_min":0,"x_max":0,"o":"m 647 198 b 758 83 716 179 765 129 b 701 11 755 54 732 25 b 618 6 679 0 647 -1 b 577 21 608 9 589 16 b 198 38 505 51 264 53 b 83 20 141 25 124 22 b -6 34 42 18 18 22 b -62 84 -28 44 -55 69 b -62 148 -67 96 -68 137 b -57 164 -60 152 -58 159 b -16 201 -54 180 -44 190 b 71 214 10 212 35 216 b 148 201 101 213 110 212 b 239 186 196 188 223 183 b 516 195 245 187 495 191 b 647 198 566 205 615 206 "},"|":{"ha":381,"x_min":0,"x_max":0,"o":"m 264 301 b 290 216 281 263 286 249 b 289 62 294 177 293 84 b 201 -23 278 12 244 -21 b 172 -20 190 -23 178 -22 l 172 -20 b 151 -9 166 -18 156 -13 b 121 198 108 23 99 81 b 108 379 135 277 134 291 b 115 622 87 448 88 477 b 129 767 128 693 131 718 b 104 901 127 817 123 841 b 87 998 87 956 85 969 b 136 1116 89 1038 112 1092 b 166 1112 149 1127 166 1125 b 179 1113 166 1106 165 1106 b 216 1110 195 1120 205 1119 b 235 1101 221 1106 230 1102 b 287 1054 258 1097 277 1079 b 293 1008 292 1042 293 1034 l 293 977 l 277 930 b 274 746 250 851 250 829 b 270 518 302 650 301 622 b 241 393 250 450 243 422 b 264 301 239 360 243 345 "}," ":{"ha":428,"x_min":0,"x_max":0,"o":""},"­":{"ha":0,"x_min":0,"x_max":0,"o":""}}}
